<?xml version="1.0" encoding="utf-8"?>
<!-- Generator: Adobe Illustrator 24.0.1, SVG Export Plug-In . SVG Version: 6.00 Build 0)  -->
<svg version="1.2" baseProfile="tiny" id="Layer_1" xmlns="http://www.w3.org/2000/svg" xmlns:xlink="http://www.w3.org/1999/xlink"
	 x="0px" y="0px" viewBox="0 0 227 76" xml:space="preserve">
<g>
	<path fill="#303A4E" d="M90.92,50.19v-24h16.73v4.71H96.72v4.92h10.08v4.72H96.72v4.93h10.93v4.71H90.92z"/>
	<path fill="#303A4E" d="M127,37.68l-5.26,0.14c-0.08-0.57-0.36-1.04-0.86-1.4s-1.12-0.54-1.88-0.54c-0.66,0-1.23,0.13-1.69,0.39
		s-0.69,0.62-0.69,1.08c-0.01,0.34,0.13,0.65,0.43,0.91s0.82,0.47,1.58,0.63l3.47,0.66c3.54,0.68,5.32,2.3,5.34,4.88
		c-0.01,1.23-0.37,2.31-1.1,3.22s-1.71,1.62-2.96,2.13s-2.68,0.76-4.29,0.76c-2.57,0-4.6-0.53-6.08-1.59s-2.33-2.48-2.53-4.26
		l5.66-0.14c0.12,0.66,0.45,1.16,0.97,1.5s1.19,0.52,2,0.52c0.73,0,1.33-0.14,1.79-0.41s0.7-0.64,0.7-1.09
		c-0.02-0.76-0.75-1.28-2.19-1.56l-3.14-0.6c-3.59-0.66-5.37-2.4-5.34-5.21c-0.01-1.8,0.71-3.21,2.14-4.22s3.38-1.51,5.81-1.51
		s4.36,0.51,5.77,1.53C126.08,34.5,126.86,35.9,127,37.68z"/>
	<path fill="#303A4E" d="M145.98,37.68l-5.26,0.14c-0.08-0.57-0.36-1.04-0.86-1.4s-1.12-0.54-1.88-0.54c-0.66,0-1.23,0.13-1.69,0.39
		s-0.69,0.62-0.69,1.08c-0.01,0.34,0.13,0.65,0.43,0.91s0.82,0.47,1.58,0.63l3.47,0.66c3.54,0.68,5.32,2.3,5.34,4.88
		c-0.01,1.23-0.37,2.31-1.1,3.22s-1.71,1.62-2.96,2.13s-2.68,0.76-4.29,0.76c-2.57,0-4.6-0.53-6.08-1.59s-2.33-2.48-2.53-4.26
		l5.66-0.14c0.12,0.66,0.45,1.16,0.97,1.5s1.19,0.52,2,0.52c0.73,0,1.33-0.14,1.79-0.41s0.7-0.64,0.7-1.09
		c-0.02-0.76-0.75-1.28-2.19-1.56l-3.14-0.6c-3.59-0.66-5.37-2.4-5.34-5.21c-0.01-1.8,0.71-3.21,2.14-4.22s3.38-1.51,5.81-1.51
		s4.36,0.51,5.77,1.53S145.83,35.9,145.98,37.68z"/>
	<path fill="#303A4E" d="M157.65,50.52c-2.83,0-5.05-0.82-6.67-2.47s-2.43-3.91-2.43-6.8c0-1.86,0.37-3.49,1.1-4.88
		s1.77-2.48,3.11-3.26s2.91-1.17,4.72-1.17c1.7,0,3.21,0.35,4.52,1.06s2.34,1.74,3.08,3.11s1.11,3.04,1.11,5.02v1.43h-12v0.15
		c0,1.1,0.32,1.99,0.96,2.66s1.51,1.01,2.61,1.01c0.75,0,1.4-0.16,1.96-0.47s0.94-0.77,1.16-1.37l5.26,0.15
		c-0.33,1.77-1.23,3.18-2.72,4.24S160.01,50.52,157.65,50.52z M154.19,39.24h6.67c-0.01-0.92-0.32-1.68-0.93-2.27
		s-1.39-0.88-2.34-0.88c-0.95,0-1.75,0.3-2.38,0.9S154.23,38.34,154.19,39.24z"/>
	<path fill="#303A4E" d="M174.86,39.92v10.27h-5.73v-18h5.45v3.3h0.2c0.4-1.09,1.08-1.96,2.04-2.59s2.11-0.95,3.43-0.95
		c1.27,0,2.37,0.28,3.3,0.84s1.66,1.35,2.18,2.37s0.78,2.2,0.77,3.55v11.47h-5.73V39.84c0.01-1-0.24-1.78-0.76-2.34
		s-1.22-0.84-2.13-0.84s-1.63,0.29-2.19,0.87S174.87,38.9,174.86,39.92z"/>
	<path fill="#303A4E" d="M198.46,50.52c-1.9,0-3.53-0.39-4.88-1.18s-2.4-1.88-3.12-3.27s-1.09-3.01-1.09-4.83
		c0-1.84,0.36-3.46,1.09-4.86s1.77-2.48,3.13-3.26s2.98-1.17,4.86-1.17c1.67,0,3.12,0.3,4.36,0.9s2.2,1.45,2.9,2.55
		s1.07,2.38,1.11,3.86h-5.36c-0.11-0.92-0.42-1.64-0.93-2.17s-1.18-0.79-2-0.79c-1,0-1.8,0.42-2.41,1.25s-0.91,2.04-0.91,3.63
		c0,1.6,0.3,2.82,0.91,3.65s1.41,1.25,2.42,1.25c0.79,0,1.45-0.25,1.98-0.76s0.85-1.24,0.95-2.19h5.36
		c-0.05,1.48-0.41,2.78-1.1,3.89s-1.65,1.97-2.88,2.58S200.15,50.52,198.46,50.52z"/>
	<path fill="#303A4E" d="M218.17,50.52c-2.83,0-5.05-0.82-6.67-2.47s-2.43-3.91-2.43-6.8c0-1.86,0.37-3.49,1.1-4.88
		s1.77-2.48,3.11-3.26s2.91-1.17,4.72-1.17c1.7,0,3.21,0.35,4.52,1.06s2.34,1.74,3.08,3.11s1.11,3.04,1.11,5.02v1.43h-12v0.15
		c0,1.1,0.32,1.99,0.96,2.66s1.51,1.01,2.61,1.01c0.75,0,1.4-0.16,1.96-0.47s0.94-0.77,1.16-1.37l5.26,0.15
		c-0.33,1.77-1.23,3.18-2.72,4.24S220.53,50.52,218.17,50.52z M214.72,39.24h6.67c-0.01-0.92-0.32-1.68-0.93-2.27
		s-1.39-0.88-2.34-0.88c-0.95,0-1.75,0.3-2.38,0.9S214.76,38.34,214.72,39.24z"/>
</g>
<path fill="#303A4E" d="M71.38,27.58L48.71,4.91c-2.83-2.83-6.6-4.39-10.61-4.39c-4.01,0-7.77,1.56-10.61,4.39L4.83,27.58v0
	C2,30.41,0.44,34.18,0.44,38.19c0,4.01,1.56,7.77,4.39,10.61L27.5,71.46c2.92,2.92,6.77,4.39,10.61,4.39
	c3.84,0,7.68-1.46,10.61-4.39l22.67-22.67c2.83-2.83,4.39-6.6,4.39-10.61C75.78,34.18,74.22,30.41,71.38,27.58z M67.14,44.55
	L44.47,67.22C42.69,69,40.34,69.87,38,69.85V6.52c0.04,0,0.07-0.01,0.11-0.01c2.4,0,4.66,0.94,6.36,2.64l22.67,22.67
	c1.7,1.7,2.64,3.96,2.64,6.36C69.78,40.59,68.84,42.85,67.14,44.55z"/>
</svg>
