<svg id="Layer_1" data-name="Layer 1" xmlns="http://www.w3.org/2000/svg" xmlns:xlink="http://www.w3.org/1999/xlink" viewBox="0 0 80.54 79.34"><defs><style>.cls-1{fill:none;}.cls-2{clip-path:url(#clip-path);}.cls-3{fill:#d7e3eb;}.cls-4{clip-path:url(#clip-path-2);}.cls-5{fill:#efedea;}.cls-6{fill:#fff;}.cls-7{clip-path:url(#clip-path-4);}.cls-8{fill:#a2a2a2;}.cls-9{fill:#9e9e9e;}.cls-10{clip-path:url(#clip-path-5);}.cls-11{fill:#858585;}.cls-12{clip-path:url(#clip-path-7);}.cls-13{fill:#88ddd7;}.cls-14{clip-path:url(#clip-path-9);}.cls-15{clip-path:url(#clip-path-10);}.cls-16{fill:#3b556b;}.cls-17{clip-path:url(#clip-path-12);}.cls-18{fill:#6190a6;}.cls-19{clip-path:url(#clip-path-14);}.cls-20{fill:#2a446f;}.cls-21{fill:#619baf;}.cls-22{fill:#07152d;}</style><clipPath id="clip-path"><rect class="cls-1" width="80.54" height="79.34"/></clipPath><clipPath id="clip-path-2"><path class="cls-1" d="M52.24,49.52c-.58.33-.88,1.1-.9,2.3h0A13,13,0,0,1,50.93,54h0a1,1,0,0,1-.39.77h0L57.08,51a1,1,0,0,0,.39-.78h0A13.66,13.66,0,0,0,57.88,48h0c0-1.21.32-2,.89-2.3h0Z"/></clipPath><clipPath id="clip-path-4"><path class="cls-1" d="M39.35,12l-6.5,3.78L33,15.7h0l6.54-3.8-.15.08m-6.54,3.8,0,0,0,0"/></clipPath><clipPath id="clip-path-5"><path class="cls-1" d="M61.46,54.87l-1.11.65h0l6.54-3.8L68,51.07h0Z"/></clipPath><clipPath id="clip-path-7"><path class="cls-1" d="M43.91,27.87a7.9,7.9,0,0,0,3.51,6h0c1.89,1.08,3.53.09,3.5-2.1h0a8,8,0,0,0-3.43-6h0l-.08,0h0a3.09,3.09,0,0,0-1.49-.42h0c-1.19,0-2,.94-2,2.53"/></clipPath><clipPath id="clip-path-9"><path class="cls-1" d="M67.88,38.6c0,2,0,4,0,6.06h0l6.54-3.8c0-2,0-4,0-6.06h0Z"/></clipPath><clipPath id="clip-path-10"><path class="cls-1" d="M45,4.9,50.3,8h0l6.54-3.8L51.57,1.1h0Z"/></clipPath><clipPath id="clip-path-12"><path class="cls-1" d="M50.3,8a19,19,0,0,1,.86,2.43h0c.28,1.36.42,2.69.6,4h0a3.84,3.84,0,0,0,.92,1.91h0a6.89,6.89,0,0,0,1.84,1.77h0a2.19,2.19,0,0,0,2.24.09h0a8.8,8.8,0,0,1,2-.4h0a1,1,0,0,1,.7.1h0a2.51,2.51,0,0,1,.82.95h0q1.59,2.78,3.19,5.54h0c.54.94.54,1.53.1,2h0c-.76.78-1.45,1.65-2.19,2.44h0c-.32.35-.27.82-.16,1.52h0a6.9,6.9,0,0,0,3.42,5h0a12.29,12.29,0,0,1,1.94,1.58h0a14.33,14.33,0,0,1,1.27,1.74h0l6.54-3.8a15.49,15.49,0,0,0-1.27-1.74h0a12.29,12.29,0,0,0-1.94-1.58h0a6.9,6.9,0,0,1-3.42-5h0c-.11-.7-.17-1.17.15-1.52h0c.75-.79,1.44-1.66,2.2-2.44h0c.44-.46.44-1-.1-2h0Q68.44,17.81,66.85,15h0a2.51,2.51,0,0,0-.82-.95h0a1,1,0,0,0-.7-.1h0a8.8,8.8,0,0,0-2,.4h0a2.19,2.19,0,0,1-2.24-.09h0a6.6,6.6,0,0,1-1.84-1.77h0a3.84,3.84,0,0,1-.92-1.91h0c-.18-1.34-.32-2.67-.6-4h0a19,19,0,0,0-.86-2.43h0Z"/></clipPath><clipPath id="clip-path-14"><path class="cls-1" d="M30.33,37.22l0,7a5.65,5.65,0,0,0,.69-2.7h0l0-7a5.65,5.65,0,0,1-.69,2.7"/></clipPath></defs><title>Artboard 21</title><g id="Group_126" data-name="Group 126"><g class="cls-2"><g id="Group_86" data-name="Group 86"><g id="Group_85" data-name="Group 85"><path id="Path_348" data-name="Path 348" class="cls-3" d="M50.54,54.82,57.08,51a1,1,0,0,0,.39-.78A14,14,0,0,0,57.88,48c0-1.2.32-2,.89-2.3l-6.54,3.8c-.57.33-.87,1.1-.89,2.3A14,14,0,0,1,50.93,54a1,1,0,0,1-.39.78"/></g></g></g><g class="cls-4"><g id="Group_88" data-name="Group 88"><g id="Group_87" data-name="Group 87"><path id="Path_350" data-name="Path 350" class="cls-5" d="M50.54,54.82,57.08,51a1,1,0,0,0,.39-.78A14,14,0,0,0,57.88,48c0-1.2.32-2,.89-2.3l-6.54,3.8c-.57.33-.87,1.1-.89,2.3A14,14,0,0,1,50.93,54a1,1,0,0,1-.39.78"/></g></g></g><g class="cls-2"><g id="Group_90" data-name="Group 90"><g id="Group_89" data-name="Group 89"><path id="Path_352" data-name="Path 352" class="cls-6" d="M28,14.72h0l-.12,0-.19,0h0l-.23.08-.18.06h-.06L27,15l6.54-3.8.18,0,.06,0,.18-.06.23-.08h0l.19,0h.4l.11,0h0l.54.17.38.12.41.14c.8.29,1.59.59,2.38.83a.3.3,0,0,0,.16,0h0l.15,0h0l.12,0,.1-.05.08,0-6.53,3.8,0,0,0,0-.1,0,0,0-.08,0h-.34c-.31-.09-.62-.2-.93-.31l-.82-.3-.3-.11L29.26,15,29,15l-.65-.2a.45.45,0,0,0-.16,0H28"/></g></g></g><g class="cls-7"><g id="Group_93" data-name="Group 93"><g id="Group_91" data-name="Group 91"><path id="Path_354" data-name="Path 354" class="cls-8" d="M33,15.7l6.53-3.8-.1,0-6.53,3.8.1-.05"/></g><g id="Group_92" data-name="Group 92"><path id="Path_355" data-name="Path 355" class="cls-9" d="M32.86,15.75,39.4,12l0,0-6.54,3.8,0,0"/></g></g></g><g class="cls-10"><g id="Group_95" data-name="Group 95"><g id="Group_94" data-name="Group 94"><path id="Path_357" data-name="Path 357" class="cls-11" d="M60.35,55.52l6.54-3.8L68,51.07l-6.54,3.8-1.11.65"/></g></g></g><g class="cls-2"><g id="Group_97" data-name="Group 97"><g id="Group_96" data-name="Group 96"><path id="Path_359" data-name="Path 359" class="cls-6" d="M41.37,19.4l6.54-3.8c-1.59.93-2.56,2.89-2.52,5.61,0,.3,0,.61.06.92a1.94,1.94,0,0,0,0,.24c0,.18.05.36.07.54s.08.47.13.71.06.33.1.5.07.31.11.46.11.4.17.61.07.24.11.36.17.5.26.75c0,.07,0,.14.07.2.12.32.25.63.39.94,0,.08.07.15.1.23.11.24.22.48.34.72,0,.09.09.18.14.26.14.29.3.57.46.85l0,.06q.25.45.54.87l.18.27c.13.2.27.39.41.59l.24.33c.12.16.25.32.38.47l.34.42.31.36.57.61.35.35.28.26.47.41.29.24.52.4.25.18c.26.18.52.35.79.5l.16.09q.39.21.78.39l.14.06c.25.11.49.2.73.28l.14,0a4.84,4.84,0,0,0,.51.14l.36.07.45.07.25,0A4.42,4.42,0,0,0,58,37h0c.21,0,.42,0,.63-.08l.16,0a3.36,3.36,0,0,0,.45-.14l.15,0a3.94,3.94,0,0,0,.55-.26l-6.54,3.8-.05,0a3.42,3.42,0,0,1-.43.21l-.07,0-.14.05-.24.09-.22.05-.16,0-.1,0a4.6,4.6,0,0,1-.52.06h-.67l-.25,0-.29,0-.16,0-.35-.08a1,1,0,0,1-.24,0l-.28-.08-.13,0c-.2-.07-.41-.14-.62-.23l-.11-.05-.15-.07a8.1,8.1,0,0,1-.78-.39l-.16-.09c-.26-.15-.53-.32-.79-.5l-.25-.18-.52-.39-.28-.24L45,37.89a3.45,3.45,0,0,0-.28-.26c0-.06-.11-.1-.16-.16l-.18-.19c-.2-.2-.39-.4-.57-.61l-.18-.19a2.09,2.09,0,0,1-.14-.17l-.34-.42L43,35.64c-.06-.07-.11-.15-.16-.22l-.25-.33c0-.08-.11-.15-.17-.23s-.15-.24-.23-.35-.13-.19-.19-.28l-.08-.12-.45-.74h0l0-.06c-.13-.22-.25-.44-.37-.66l-.09-.18c-.05-.09-.09-.18-.13-.27s-.1-.19-.15-.3l-.2-.42c0-.08-.07-.16-.1-.23a.93.93,0,0,1-.05-.1c-.11-.26-.22-.52-.32-.79,0,0,0,0,0-.05a1.59,1.59,0,0,1-.07-.2l-.21-.57c0-.06,0-.12-.05-.19s-.08-.24-.11-.36a2.44,2.44,0,0,1-.1-.33c0-.1,0-.18-.07-.27s-.08-.31-.11-.46,0-.18-.07-.26a1.72,1.72,0,0,0,0-.24L39,26.71c0-.09,0-.19,0-.28a2.3,2.3,0,0,1,0-.26l0-.25c0-.3,0-.61,0-.91,0-2.72.94-4.68,2.52-5.61"/></g></g></g><g class="cls-12"><g id="Group_99" data-name="Group 99"><g id="Group_98" data-name="Group 98"><path id="Path_361" data-name="Path 361" class="cls-13" d="M0,0H80.54V79.34H0Z"/></g></g></g><g class="cls-2"><g id="Group_104" data-name="Group 104"><g id="Group_100" data-name="Group 100"><path id="Path_363" data-name="Path 363" class="cls-6" d="M45,25.59l6.53-3.8,0,0,.19-.09h0l.06,0,.1,0H52l.08,0h.05l.16,0h.41l.16,0h.05l.14,0,.12,0h0l.3.1.07,0h0l.36.17L54,22l.47.32.1.08a5.34,5.34,0,0,1,.44.39s0,0,0,0l.09.09c.08.07.15.16.23.24l0,.06.09.1.14.18.06.07.1.13.1.14,0,.06.13.2a.86.86,0,0,1,.07.1v0c.07.1.13.21.2.32v0a.56.56,0,0,0,0,.08l.11.22.05.08.06.12.06.12s0,.11.07.17a.47.47,0,0,1,0,.1l0,.06c0,.11.09.22.13.33h0l0,0c0,.1.07.21.11.31s0,0,0,.05,0,.1,0,.14a1.67,1.67,0,0,0,0,.18s0,.05,0,.08,0,.12,0,.19l0,.12a.34.34,0,0,1,0,.09c0,.1,0,.19,0,.28a.5.5,0,0,1,0,.12v.05c0,.16,0,.32,0,.48a2.45,2.45,0,0,1-1,2.29l-6.54,3.8a2.48,2.48,0,0,0,1.05-2.29,3.88,3.88,0,0,0,0-.48,1.11,1.11,0,0,1,0-.17c0-.1,0-.19,0-.29s0-.14-.05-.21,0-.12,0-.18l-.08-.26c0-.05,0-.1,0-.14s-.08-.24-.13-.36v0l-.16-.39a.37.37,0,0,1,0-.11l-.14-.28-.06-.12-.16-.3,0-.08c-.07-.13-.14-.25-.22-.37l-.06-.09-.18-.27a.71.71,0,0,1-.1-.14l-.16-.2L49,27.11,48.84,27l-.23-.25-.1-.1a5.82,5.82,0,0,0-.45-.4l-.1-.07a4.87,4.87,0,0,0-.47-.32l-.08,0a2.39,2.39,0,0,0-.37-.17l-.09,0-.3-.1-.17,0-.14,0-.2,0h-.42l-.21,0-.08,0-.18.05-.06,0a1.67,1.67,0,0,0-.23.12h0"/></g><g id="Group_101" data-name="Group 101"><path id="Path_364" data-name="Path 364" class="cls-6" d="M35.06,3.8h0a.5.5,0,0,0-.17,0h0a.51.51,0,0,0-.17.07l-1.46.83L39.79.92,41.25.09h0l.08,0,.07,0h.4l.05,0A.34.34,0,0,1,42,.13a.91.91,0,0,1,.16.11l.1.08.07.07h0c.05,0,.09.1.14.15v0l0,0,.08.09.07.09c1.09,1.49,2.22,3,3.29,4.47l.24.32h0a2.76,2.76,0,0,0,.21.25l.06.07L46.6,6l.06.06a1.37,1.37,0,0,0,.21.15l.15.07,0,0,.15,0h.17a.51.51,0,0,0,.17,0h.33l.08,0,.09,0,.38.13h.07l.31.05h0a1.27,1.27,0,0,0,.28,0h0a.87.87,0,0,0,.24-.1h0l-6.54,3.8h0l-.1,0-.1,0h-.36l-.18,0-.12,0-.07,0h0l-.34-.11a1.22,1.22,0,0,0-.26-.06h0l-.24,0-.09,0h-.26l-.09,0,0,0h-.06l-.13-.06-.21-.16-.06-.06L40,9.78l-.08-.09a.34.34,0,0,0-.06-.06l0,0c-.06-.06-.11-.14-.17-.21h0l-.24-.32c-1.08-1.52-2.21-3-3.3-4.47L36,4.39l0,0-.16-.17a.41.41,0,0,0-.1-.09L35.6,4l-.17-.11-.17-.08h0l-.18,0"/></g><g id="Group_102" data-name="Group 102"><path id="Path_365" data-name="Path 365" class="cls-6" d="M61.15,46.14v-.06c0-.13,0-.25.06-.38v0c0-.14.06-.28.1-.42h0c0-.15.08-.29.13-.43s0,0,0-.05.1-.26.16-.38a.14.14,0,0,0,0-.06c.06-.12.11-.23.17-.33l0-.05.18-.26,0,0a1,1,0,0,1,.19-.17h0l6.54-3.8a1,1,0,0,0-.19.17l0,0a2,2,0,0,0-.18.26l0,0a3.24,3.24,0,0,0-.17.32l0,.07c-.06.12-.11.24-.16.37L68,41a3.38,3.38,0,0,0-.13.42h0c0,.14-.07.28-.1.42a.43.43,0,0,1,0,0,2.47,2.47,0,0,0,0,.38.13.13,0,0,1,0,.06,1.71,1.71,0,0,0,0,.32.5.5,0,0,0,0,.12h0a.54.54,0,0,0,0,.15c.73,1.66,1.45,3.32,2.21,5l.06.15a2.44,2.44,0,0,1,.1.24h0a1.19,1.19,0,0,1,.08.2.93.93,0,0,0,0,.13v0s0,0,0,0a.85.85,0,0,1,0,.17s0,.06,0,.08,0,0,0,0a.09.09,0,0,0,0,.05v.28s0,.07,0,.1a.94.94,0,0,1,0,.16.36.36,0,0,1,0,.09.51.51,0,0,1-.09.16l-.05.06a.68.68,0,0,1-.21.17l-6.54,3.8a.87.87,0,0,0,.21-.17.18.18,0,0,0,0-.07.71.71,0,0,0,.1-.14l0-.09a1,1,0,0,0,0-.17s0-.07,0-.1a1.47,1.47,0,0,0,0-.21s0-.07,0-.11a.43.43,0,0,0,0-.05l-.06-.28s0,0,0,0a2.67,2.67,0,0,0-.12-.33h0c0-.12-.1-.25-.16-.39-.75-1.65-1.48-3.31-2.2-5h0v0l0,0a.08.08,0,0,0,0,0,.06.06,0,0,0,0,0h0a.3.3,0,0,0,0-.1v0a1.71,1.71,0,0,1,0-.32"/></g><g id="Group_103" data-name="Group 103"><path id="Path_366" data-name="Path 366" class="cls-5" d="M44.7,4.86a.52.52,0,0,0-.25.07L51,1.13h0l.06,0,.05,0,.07,0h.25l.14,0h0L45,4.9A1.24,1.24,0,0,0,44.7,4.86Z"/></g></g></g><g class="cls-14"><g id="Group_106" data-name="Group 106"><g id="Group_105" data-name="Group 105"><path id="Path_368" data-name="Path 368" class="cls-6" d="M67.86,44.66l6.54-3.8c0-2,0-4,0-6.06l-6.54,3.8c0,2,0,4,0,6.06"/></g></g></g><g class="cls-15"><g id="Group_108" data-name="Group 108"><g id="Group_107" data-name="Group 107"><path id="Path_370" data-name="Path 370" class="cls-6" d="M51.56,1.1l5.28,3.05L50.3,8,45,4.9Z"/></g></g></g><g class="cls-2"><g id="Group_110" data-name="Group 110"><g id="Group_109" data-name="Group 109"><path id="Path_372" data-name="Path 372" class="cls-16" d="M38.85,25c.09,5.41,3.92,12,8.49,14.6l.16.09C52.23,42.33,56,40,56,34.6a18.76,18.76,0,0,0-8.63-14.68c-4.7-2.69-8.55-.26-8.47,5.09m-6.8-9c.33.1.59-.14.91-.31,1-1.18.93-2.85-.38-5.18a18.31,18.31,0,0,1-1.37-3.23c-.16-.46-.14-1.17.08-1.32,1.09-.78,2.26-1.41,3.42-2.08a.69.69,0,0,1,.73,0,2.31,2.31,0,0,1,.66.66c1.09,1.49,2.22,3,3.29,4.47a3.48,3.48,0,0,0,1,1,.79.79,0,0,0,.67.1.86.86,0,0,1,.5,0c1.56.63,1.94-.42,2.06-1.91.08-.91.36-1.7.49-2.58.1-.63.37-1,1-.79L50.3,8a19.08,19.08,0,0,1,.86,2.44c.28,1.36.42,2.69.6,4a3.84,3.84,0,0,0,.92,1.91,6.89,6.89,0,0,0,1.84,1.77,2.18,2.18,0,0,0,2.23.08,10.23,10.23,0,0,1,2-.4,1,1,0,0,1,.7.11,2.51,2.51,0,0,1,.82.95q1.59,2.78,3.19,5.54c.55.94.54,1.53.1,2-.76.78-1.45,1.65-2.19,2.44-.32.35-.27.82-.16,1.52a6.9,6.9,0,0,0,3.42,5,12.29,12.29,0,0,1,1.94,1.58,14.33,14.33,0,0,1,1.27,1.74c0,2,0,4,0,6.06-.44.09-.86.37-1.35.23-1.22-.33-2.48-.84-3.72-1.28l-.36-.16c-.59-.11-1.56,2.49-1.21,3.29.72,1.65,1.45,3.31,2.2,5,.52,1.13.54,1.85-.16,2.19-1,.49-1.95,1.06-2.91,1.63a1,1,0,0,1-1.06,0,2.92,2.92,0,0,1-.91-.94c-1-1.49-2.12-3-3.22-4.36a2,2,0,0,0-.63-.53,2.17,2.17,0,0,0-.41-.19c-1.81-.59-2.74.14-2.78,2.3A12.66,12.66,0,0,1,50.93,54c-.1.61-.34,1-.94.82l-5.1-2.94a2.86,2.86,0,0,1-1-1.9c-.2-1.48-.48-3-.67-4.47a4.15,4.15,0,0,0-1.07-2.19,6.55,6.55,0,0,0-1.78-1.66,2.37,2.37,0,0,0-2.32-.13,13.55,13.55,0,0,1-1.87.4,1.07,1.07,0,0,1-.82-.1,2.59,2.59,0,0,1-.86-1c-1.07-1.85-2.13-3.7-3.2-5.54-.48-.83-.53-1.41-.13-1.84a34.79,34.79,0,0,0,2.31-2.65,1.93,1.93,0,0,0,.1-1.23,7.09,7.09,0,0,0-3.57-5.33,10.55,10.55,0,0,1-1.94-1.58A13.66,13.66,0,0,1,27,21q0-3,0-6.06c.46-.08.87-.37,1.36-.23,1.22.33,2.49.88,3.72,1.26"/></g></g></g><g class="cls-17"><g id="Group_112" data-name="Group 112"><g id="Group_111" data-name="Group 111"><path id="Path_374" data-name="Path 374" class="cls-6" d="M56.84,4.15l.1.27c.12.32.25.64.38,1s.13.36.19.53l.11.35c0,.11.05.2.07.3v0c.18.9.31,1.8.42,2.69.05.37.1.73.14,1.1l0,.24a1.85,1.85,0,0,1,0,.23c0,.06,0,.12.05.17a.47.47,0,0,0,0,.14s0,.09,0,.13a1.17,1.17,0,0,0,0,.11.61.61,0,0,1,.05.12s0,.08.07.13l.07.13.1.17.16.23c.08.11.16.23.26.35l.07.1.4.48c.13.15.28.31.41.44a4.9,4.9,0,0,0,.95.75,2.26,2.26,0,0,0,.35.17,1.76,1.76,0,0,0,.3.1,1,1,0,0,0,.24,0,1.66,1.66,0,0,0,.22,0h.22l.22,0,.24-.06a1.48,1.48,0,0,0,.27-.1l.18-.08.1,0,.24-.08.36-.08c.38-.07.78-.09,1.15-.15l.18,0h.37l.1,0,.12,0,.12.06a1.33,1.33,0,0,1,.3.23l.12.12a.58.58,0,0,0,.1.12l.09.13.1.14.1.17,0,0q1.59,2.78,3.19,5.53l.1.18.08.15.06.13,0,.12s0,.08,0,.12l0,.11,0,.11a.68.68,0,0,1,0,.14,1.07,1.07,0,0,1-.31.94c-.75.77-1.44,1.65-2.19,2.44a1.3,1.3,0,0,0-.21,1.13,3.1,3.1,0,0,0,.06.39c0,.13,0,.24.07.36s.07.32.11.47a3.58,3.58,0,0,0,.11.35c0,.12.07.2.11.3s.07.18.1.27.07.16.11.23l.12.23a1.13,1.13,0,0,0,.12.21,2.53,2.53,0,0,0,.13.22l.15.23.18.24.23.28a4.59,4.59,0,0,0,.37.39,9,9,0,0,0,1.5,1.18A11.93,11.93,0,0,1,73.06,33l.1.1.17.18.17.21.21.29c.23.32.44.66.66,1l.06.08-6.54,3.8-.06-.08c-.22-.32-.43-.66-.65-1L67,37.25,66.79,37l-.17-.18a.94.94,0,0,0-.1-.1,11.55,11.55,0,0,0-1.85-1.48,9,9,0,0,1-1.5-1.18,4.59,4.59,0,0,1-.37-.39l-.23-.28-.18-.24c-.06-.08-.1-.15-.15-.23a2.39,2.39,0,0,1-.13-.21,1.64,1.64,0,0,1-.12-.22l-.12-.23c0-.07-.07-.15-.11-.23l-.1-.26a2.65,2.65,0,0,1-.11-.3c0-.12-.08-.24-.11-.36s-.08-.3-.11-.46,0-.25-.07-.37,0-.27-.06-.39a1.31,1.31,0,0,1,.21-1.13c.75-.79,1.44-1.66,2.19-2.44a1.07,1.07,0,0,0,.31-.94.51.51,0,0,0,0-.13c0-.05,0-.08,0-.12l0-.11s0-.08,0-.11,0-.08,0-.13l-.06-.13a1.09,1.09,0,0,0-.08-.15,1,1,0,0,0-.1-.17q-1.61-2.76-3.19-5.54l0,0-.1-.17-.1-.14a1,1,0,0,1-.09-.13l-.1-.11a1.36,1.36,0,0,0-.12-.12,1.38,1.38,0,0,0-.3-.24l-.12-.06-.12,0-.1,0h-.37l-.18,0c-.37.06-.77.09-1.14.15l-.37.08-.24.09-.1,0-.18.09-.27.1-.24.05-.22,0h-.22l-.22,0-.24-.05-.3-.1a2.31,2.31,0,0,1-.35-.18,4.44,4.44,0,0,1-.94-.74q-.21-.21-.42-.45t-.39-.48l-.08-.1c-.1-.12-.18-.24-.26-.35l-.16-.23c0-.06-.07-.11-.1-.16s0-.1-.07-.14a1.34,1.34,0,0,0-.06-.12L52,15.2a.61.61,0,0,0-.05-.12s0-.08,0-.12a1,1,0,0,1,0-.14.85.85,0,0,1,0-.17,2,2,0,0,1,0-.24,2.23,2.23,0,0,1,0-.23c0-.37-.09-.74-.14-1.11-.11-.89-.24-1.78-.42-2.68v0c0-.1,0-.2-.07-.3S51,9.83,51,9.71s-.12-.35-.19-.53-.26-.64-.38-1c0-.09-.07-.18-.1-.27Z"/></g></g></g><g class="cls-2"><g id="Group_114" data-name="Group 114"><g id="Group_113" data-name="Group 113"><path id="Path_376" data-name="Path 376" class="cls-18" d="M22.68,31.72l0,0,.16.12.24.18,0,0,.21.23,0,0,0,.06.06.1a.66.66,0,0,1,.09.19,0,0,0,0,0,0,0,0,0,0,0,0,0,0l0,.13a.63.63,0,0,1,0,.19v0l0,7a1.13,1.13,0,0,0-.06-.36s0,0,0,0a1.91,1.91,0,0,0-.16-.32.21.21,0,0,1,0-.06,2.44,2.44,0,0,0-.27-.29l-.24-.18a1.43,1.43,0,0,0-.2-.14l-10.23-6,0-7Z"/></g></g></g><g class="cls-19"><g id="Group_116" data-name="Group 116"><g id="Group_115" data-name="Group 115"><path id="Path_378" data-name="Path 378" class="cls-20" d="M30.33,37.22l0,7a5.65,5.65,0,0,0,.69-2.7l0-7a5.65,5.65,0,0,1-.69,2.7"/></g></g></g><g class="cls-2"><g id="Group_125" data-name="Group 125"><g id="Group_117" data-name="Group 117"><path id="Path_380" data-name="Path 380" class="cls-16" d="M0,35.08a4.07,4.07,0,0,0,0,.49c0,.13.07.26.1.4a4,4,0,0,0,.14.46,2.54,2.54,0,0,0,.16.38c.07.16.14.32.22.48l.21.35q.16.27.36.54a6.28,6.28,0,0,0,.42.51l.1.12c.2.22.42.43.65.64s.31.26.47.39.28.23.43.34l.55.37c.19.12.39.26.61.39a16,16,0,0,0,1.6.81c.18.08.38.14.58.22.37.15.75.3,1.15.43s1.05.33,1.59.46l.29.06q.66.16,1.35.27c.37.07.74.11,1.11.16s.56.08.85.1l.7,0,1.14,0c.22,0,.43,0,.64,0,.4,0,.79,0,1.19,0l.6,0c.55,0,1.11-.08,1.65-.16l0,7c-.42.06-.85.11-1.28.14l-.37,0c-.2,0-.4,0-.6,0l-.56,0h-1.6l-.81,0-.7-.05h-.2l-.66-.09c-.37,0-.74-.09-1.1-.16a1.6,1.6,0,0,1-.23,0c-.38-.07-.75-.15-1.12-.24l-.3-.06c-.5-.12-1-.26-1.48-.41l-.11,0c-.4-.13-.77-.28-1.15-.43l-.58-.22A16,16,0,0,1,4.52,48l-.21-.12-.4-.27c-.18-.12-.37-.24-.54-.37s-.3-.23-.44-.34l-.47-.39-.1-.08c-.2-.19-.38-.37-.56-.56l-.1-.12c-.1-.12-.21-.24-.3-.36l-.11-.16a6.18,6.18,0,0,1-.36-.53c0-.08-.1-.15-.14-.23a.67.67,0,0,1-.06-.12c-.08-.16-.15-.32-.22-.48s-.1-.19-.14-.28,0-.07,0-.1A3.64,3.64,0,0,1,.21,43c0-.1-.07-.2-.09-.31a.25.25,0,0,0,0-.08,4.07,4.07,0,0,1,0-.49c0-.11,0-.21,0-.32v-.14l0-7a3.42,3.42,0,0,0,0,.45"/></g><g id="Group_118" data-name="Group 118"><path id="Path_381" data-name="Path 381" class="cls-18" d="M60.54,57.05l0,7h9l0-7Z"/></g><g id="Group_119" data-name="Group 119"><path id="Path_382" data-name="Path 382" class="cls-18" d="M54.17,60.73l0,7,6.37-3.68,0-7Z"/></g><g id="Group_120" data-name="Group 120"><path id="Path_383" data-name="Path 383" class="cls-18" d="M69.53,57.05l0,7,6.33,3.68,0-7Z"/></g><g id="Group_121" data-name="Group 121"><path id="Path_384" data-name="Path 384" class="cls-21" d="M35.64,51.66l1.2.72.45.27.84.53c.36.22.71.44,1,.67l.82.52,1,.68.77.52,1,.7.73.5,1,.71.68.49,1,.75.58.42L48,60l1.84,1.34,0,7L48,67c-.37-.27-.74-.53-1.11-.81l-.62-.44c-.33-.24-.66-.49-1-.73l-.68-.49-1-.7c-.25-.17-.5-.34-.74-.52l-1-.68L41,62.07l-1-.68-.82-.53-1.05-.66-.84-.53-1.65-1A185.27,185.27,0,0,0,19,50.36l0-7a185.27,185.27,0,0,1,16.69,8.32"/></g><g id="Group_122" data-name="Group 122"><path id="Path_385" data-name="Path 385" class="cls-22" d="M54.14,65.94l0,7,0-5.2,0-7Z"/></g><g id="Group_123" data-name="Group 123"><path id="Path_386" data-name="Path 386" class="cls-16" d="M49.52,63.84c0,.16,0,.33.06.49a3.34,3.34,0,0,0,.1.4c0,.15.08.31.13.46s.11.25.16.38a5.24,5.24,0,0,0,.23.48c.06.12.13.23.2.35s.23.35.36.53.27.35.42.52a.52.52,0,0,0,.1.11c.2.22.42.43.65.64l.47.39.44.35.55.36c.18.12.39.27.6.39a15.37,15.37,0,0,0,1.46.74l.44.19c.4.17.81.32,1.22.46l.45.16.8.23.61.16c.28.07.57.12.86.18l.58.12c.58.1,1.17.19,1.77.25l.55,0c.35,0,.7.06,1.05.07l.67,0h.85l.71,0,.79,0,.72-.06c.26,0,.52,0,.77-.09L69,72l.82-.14.64-.13,1-.23.53-.15c.57-.16,1.12-.35,1.66-.56.27-.1.53-.22.79-.33s.27-.11.4-.18c.39-.18.77-.38,1.13-.59a10.55,10.55,0,0,0,3.44-3,5.87,5.87,0,0,0,1.15-3.4l0,7c0,2.32-1.52,4.64-4.58,6.4-.37.21-.75.41-1.14.59-.13.07-.26.12-.39.18l-.7.3-.09,0c-.54.21-1.09.4-1.66.56l-.14,0-.4.1-1,.23-.26.07-.38.06L69,79l-.32,0-.37,0-.77.08-.37,0-.35,0-.79,0c-.13,0-.26,0-.39,0H64.06l-.25,0-1.05-.07-.42,0-.13,0q-.9-.09-1.77-.24h-.09l-.5-.11L59,78.66l-.61-.17-.8-.23-.17-.05-.28-.1c-.42-.14-.82-.3-1.22-.46l-.44-.19c-.5-.22-1-.47-1.47-.74l-.2-.12-.4-.27L52.86,76l-.44-.35c-.16-.13-.32-.25-.47-.39l-.1-.08a7.23,7.23,0,0,1-.55-.56l-.1-.11c-.11-.12-.22-.24-.31-.36L50.78,74c-.13-.19-.25-.37-.36-.55a1.82,1.82,0,0,1-.15-.23l-.06-.11c-.08-.16-.15-.32-.22-.48s-.1-.19-.13-.29a.32.32,0,0,1,0-.09,4.12,4.12,0,0,1-.13-.47,2.8,2.8,0,0,1-.09-.31.22.22,0,0,1,0-.08c0-.16,0-.33-.06-.49s0-.21,0-.32V70.4l0-7c0,.16,0,.3,0,.46"/></g><g id="Group_124" data-name="Group 124"><path id="Path_387" data-name="Path 387" class="cls-6" d="M60.47,69.61h9l6.38-3.67,0-5.2-6.33-3.68h-9l-6.37,3.67,0,5.2,6.33,3.68m-24.83-18A185.27,185.27,0,0,0,19,43.34c-5,.67-10.53-.13-14.45-2.4S-.7,35.64.32,32.78l10.3,6a5.22,5.22,0,0,0,3.3.5l5.37-.88a4.55,4.55,0,0,0,1.48-.5,2.13,2.13,0,0,0,.84-.79l1.88-3.38c.39-.7.08-1.47-.81-2L12.44,25.78c5.44-.64,11.33.41,15.18,3.15,3.29,2.36,4.19,5.5,2.71,8.29a108.68,108.68,0,0,0,13.84,9.45,139.39,139.39,0,0,0,16.42,8C65.88,53.81,71.85,54.56,76,57c6,3.51,6,9.2-.08,12.71S60,73.2,54,69.69c-3.89-2.26-5.26-5.42-4.12-8.33a163.61,163.61,0,0,0-14.23-9.7"/></g></g></g></g></svg>