<svg id="Layer_1" data-name="Layer 1" xmlns="http://www.w3.org/2000/svg" viewBox="0 0 50.03 115.91"><defs><style>.cls-1{fill:#909fba;}.cls-2{fill:#721bd5;}.cls-3{fill:#b45ef4;}.cls-4{fill:#8a2ae3;}.cls-5{fill:#c13d1a;}.cls-6{fill:#db5126;}.cls-7{fill:#ef602e;}.cls-8{fill:#d3008d;}.cls-9{fill:#ff2c9c;}.cls-10{fill:#e8a200;}.cls-11{fill:#f9bf30;}.cls-12{fill:#fdd762;}</style></defs><title>Artboard 17</title><path id="Path_206" data-name="Path 206" class="cls-1" d="M49.43,105.38l-16.5-9.54-16.51,9.54,16.51,9.52Z"/><g id="Group_14" data-name="Group 14"><path id="Path_194" data-name="Path 194" class="cls-2" d="M33,89.37V19.46l16.5-9.52v69.9Z"/><path id="Path_195" data-name="Path 195" class="cls-3" d="M33,19.46,16.51,9.94v69.9L33,89.37Z"/><path id="Path_196" data-name="Path 196" class="cls-4" d="M49.53,9.94,33,.4,16.51,9.94,33,19.46Z"/></g><g id="Group_16" data-name="Group 16"><path id="Path_198" data-name="Path 198" class="cls-5" d="M16.51,98.91V48.06L33,38.52V89.37Z"/><path id="Path_199" data-name="Path 199" class="cls-6" d="M16.51,48.06,0,38.52V89.37l16.51,9.54Z"/><path id="Path_200" data-name="Path 200" class="cls-7" d="M33,38.52,16.51,29,0,38.52l16.51,9.54Z"/><path id="Path_201" data-name="Path 201" class="cls-8" d="M16.51,98.91V48.06L33,38.52V89.37Z"/><path id="Path_202" data-name="Path 202" class="cls-8" d="M16.51,48.06,0,38.52V89.37l16.51,9.54Z"/><path id="Path_203" data-name="Path 203" class="cls-9" d="M33,38.52,16.51,29,0,38.52l16.51,9.54Z"/></g><g id="Group_17" data-name="Group 17"><path id="Path_204" data-name="Path 204" class="cls-10" d="M33,108.44V79.84l16.5-9.53v28.6Z"/><path id="Path_205" data-name="Path 205" class="cls-11" d="M33,79.83,16.51,70.31v28.6L33,108.44Z"/><path id="Path_206-2" data-name="Path 206" class="cls-12" d="M49.53,70.31,33,60.77,16.51,70.31,33,79.83Z"/></g></svg>