<svg id="Layer_1" data-name="Layer 1" xmlns="http://www.w3.org/2000/svg" viewBox="0 0 59.96 88.98"><defs><style>.cls-1{fill:#3b556b;}.cls-2{fill:#fff;}.cls-3{fill:none;}.cls-4{fill:#2e4457;}.cls-5{fill:#05264f;}.cls-6{fill:#8dd7d1;}.cls-7{fill:#ef2097;}.cls-8{fill:#d8e4eb;}</style></defs><title>Artboard 20</title><g id="Group_74" data-name="Group 74"><g id="Group_69" data-name="Group 69"><g id="Group_68" data-name="Group 68"><path id="Path_330" data-name="Path 330" class="cls-1" d="M27.61,24.13l0,0a2.11,2.11,0,0,0-.34-.16l-.07,0-.11,0-.17-.06-.19,0-.12,0h-.06l-.4-.05h-.56l-.2,0-.19,0-.17,0-.27.06-.15,0-.15.05-.47.16-.17.06a.31.31,0,0,0-.1.05,6.58,6.58,0,0,0-.84.42L6.67,33.94a9.09,9.09,0,0,0-1,.71,1.09,1.09,0,0,0-.17.13,10.53,10.53,0,0,0-.94.83.27.27,0,0,0-.08.07l-.14.15c-.15.15-.3.31-.44.47l-.14.15a.76.76,0,0,0-.11.14c-.09.1-.17.21-.26.32l-.17.21-.13.18c-.06.08-.12.17-.19.25l-.13.17L2.52,38l-.13.19a.22.22,0,0,0-.05.08L2,38.87l0,0A.75.75,0,0,1,1.9,39c-.08.13-.15.27-.23.41l-.1.2-.1.2c0,.07-.06.11-.09.17s-.15.32-.22.48,0,0,0,.08,0,0,0,0c-.09.2-.17.4-.25.6,0,0,0,.08,0,.11s0,.15-.08.22l-.11.3a2.17,2.17,0,0,0-.07.24c0,.09-.06.19-.08.28a1.09,1.09,0,0,0,0,.17c0,.1,0,.21-.08.31a3.38,3.38,0,0,0-.08.34l0,.12a2.17,2.17,0,0,0,0,.25c0,.18-.07.36-.09.54l0,.15c0,.05,0,.09,0,.14A10.9,10.9,0,0,0,0,45.5l.05,19c0,2,.71,3.41,1.85,4.08l10.34,6c-1.14-.66-1.85-2.07-1.85-4.08l-.05-19a9.36,9.36,0,0,1,.08-1.18l0-.28.09-.54c0-.12,0-.24.07-.37s.06-.23.08-.34.08-.32.13-.48.06-.19.08-.28l.18-.54c0-.07.05-.15.08-.22.09-.25.19-.49.3-.74a.2.2,0,0,1,0-.08c.1-.22.2-.44.31-.65l.1-.2c.1-.2.21-.41.33-.61l.06-.11c.13-.23.28-.46.42-.69l.13-.19.33-.48a2.35,2.35,0,0,1,.19-.25l.3-.39.26-.32c.08-.1.17-.19.26-.29s.29-.32.45-.47l.22-.22a12.39,12.39,0,0,1,.94-.83l.17-.13a9,9,0,0,1,1-.7l16.17-9.34a6.58,6.58,0,0,1,.84-.42l.26-.11c.16-.06.32-.12.47-.16l.3-.08.27-.06.36-.05.2,0h.53a4.1,4.1,0,0,1,.49.06l.12,0a2.26,2.26,0,0,1,.37.11l.11,0a3.55,3.55,0,0,1,.44.21Z"/><g id="Group_67" data-name="Group 67"><path id="Path_331" data-name="Path 331" class="cls-2" d="M33.19,30.61c3.7-2.14,6.71-.42,6.72,3.83l.05,19a14,14,0,0,1-6.34,11L16.77,74.11c-3.51,2-6.36.4-6.37-3.63l-.05-19A14.75,14.75,0,0,1,17,39.94Z"/></g></g></g><g id="Group_72" data-name="Group 72"><g id="Group_71" data-name="Group 71"><path id="Path_332" data-name="Path 332" class="cls-3" d="M10.56,41.84l-4-2.32a1,1,0,0,1-.44-1l4,2.32A1,1,0,0,0,10.56,41.84Z"/><path id="Path_333" data-name="Path 333" class="cls-4" d="M30,29.4,30,12.17c0-2.68-.95-4.55-2.49-5.42l-4-2.32C25,5.3,26,7.17,26,9.85L26,27.08a1.05,1.05,0,0,0,.44,1l4,2.32A1,1,0,0,1,30,29.4Z"/><path id="Path_334" data-name="Path 334" class="cls-1" d="M25.63.77l-.06,0c-.19-.1-.38-.2-.57-.28l-.11,0L24.7.34c-.1,0-.2-.08-.3-.1L24.07.16l-.2,0-.11,0A5.4,5.4,0,0,0,23.07,0H22.3l-.19,0-.34,0-.32,0-.29.06-.47.1-.25,0-.26.09c-.27.08-.53.17-.81.28l-.28.1L18.81.9,18.54,1c-.35.16-.69.34-1.05.54s-.73.45-1.09.69l-.35.25q-.36.25-.72.54l-.39.32-.65.56-.39.36-.24.23-.24.26c-.26.26-.51.53-.76.81-.08.09-.17.17-.24.26l-.19.23-.44.54c-.1.12-.2.23-.29.36l-.22.3L11,7.7l-.22.3-.35.52-.22.33L10.08,9c-.2.32-.4.64-.59,1L9.43,10c0,.06-.07.13-.11.2-.13.23-.27.47-.39.7l-.17.33-.18.35-.15.3c-.13.27-.25.53-.37.8L8,12.87s0,0,0,0c-.15.34-.29.68-.42,1a1.34,1.34,0,0,0-.07.18l-.14.38c-.06.17-.13.34-.19.52l-.12.4c0,.16-.1.31-.14.47l-.09.3c-.05.17-.08.35-.13.52s-.1.39-.14.59a1.6,1.6,0,0,0,0,.21c0,.14,0,.28-.07.42-.06.31-.11.61-.16.91,0,.09,0,.17,0,.26l-.06.56c0,.14,0,.27,0,.41,0,.43,0,.85,0,1.26l0,17.23a1,1,0,0,0,.44,1l4,2.32a1,1,0,0,1-.44-1l0-17.23c0-.42,0-.84,0-1.26,0-.13,0-.27,0-.4s.06-.55.1-.82.1-.61.16-.91l.12-.63c0-.19.09-.39.14-.59s.14-.54.22-.82l.14-.47c.1-.31.2-.61.31-.92l.13-.37q.24-.63.51-1.26l.07-.15c.16-.37.34-.74.52-1.1.06-.11.12-.23.17-.34.18-.35.36-.69.56-1l.11-.2q.35-.6.72-1.17l.22-.33c.18-.28.37-.55.57-.82s.21-.29.32-.43L15.77,9l.44-.54c.15-.18.29-.33.44-.49s.5-.55.76-.81l.49-.49.39-.36.65-.57.39-.32q.36-.28.72-.54l.35-.25c.36-.25.72-.48,1.09-.69s.7-.38,1.05-.54l.27-.12c.19-.09.38-.15.57-.23s.54-.2.81-.28l.51-.14.47-.1c.2,0,.41-.07.6-.09l.34,0a5.93,5.93,0,0,1,.73,0H27a6,6,0,0,1,.84.11l.2,0q.32.08.63.18l.19.07a5.17,5.17,0,0,1,.75.36Z"/><g id="Group_70" data-name="Group 70"><path id="Path_335" data-name="Path 335" class="cls-2" d="M21.48,3.89C27.8.24,32.94,3.17,33,10.43l0,17.23a3.34,3.34,0,0,1-1.5,2.6c-.84.48-1.51.1-1.51-.86L30,12.17c0-2.68-.95-4.55-2.49-5.42s-3.64-.74-6,.6a17.07,17.07,0,0,0-5.95,6.28,17,17,0,0,0-2.45,8.27l.05,17.23a3.31,3.31,0,0,1-1.5,2.6c-.83.48-1.51.1-1.51-.86l-.05-17.23C10.06,16.38,15.16,7.54,21.48,3.89Z"/></g></g></g><g id="Group_73" data-name="Group 73"><path id="Path_336" data-name="Path 336" class="cls-5" d="M25.79,44.61c2.47-1.43,4.48-.27,4.48,2.56a9.84,9.84,0,0,1-2.71,6.3l0,7.74a4,4,0,0,1-1.79,3.11c-1,.58-1.81.12-1.81-1l0-7.79c-1.55.07-2.62-1.09-2.63-3.16A9.85,9.85,0,0,1,25.79,44.61Z"/></g></g><g id="Group_83" data-name="Group 83"><g id="Group_82" data-name="Group 82"><path id="Path_337" data-name="Path 337" class="cls-6" d="M52.07,66a3.65,3.65,0,0,0-.53-.25h0l-.09,0-.33-.11-.18,0-.1,0-.1,0c-.12,0-.24,0-.36-.06h-.22l-.14,0-.36,0h-.38a2.69,2.69,0,0,0-.4,0H48.7l-.31,0-.13,0-.36.09-.19,0-.08,0a3.86,3.86,0,0,0-.72.32l0,0c-.07,0-.12.09-.18.13a2.48,2.48,0,0,0-.26.19s0,0,0,0a2.61,2.61,0,0,0-.23.24l0,.06,0,.06-.07.1a2,2,0,0,0-.1.21s0,0,0,0,0,0,0,0l0,.13a1.49,1.49,0,0,0,0,.21v3.37a1.21,1.21,0,0,1,.06-.38s0,0,0,0a1.54,1.54,0,0,1,.17-.34l0-.06a2.21,2.21,0,0,1,.29-.32,2.48,2.48,0,0,1,.26-.19l.22-.16a3.86,3.86,0,0,1,.72-.32l.28-.08c.12,0,.24-.07.36-.09l.45-.08h.11c.2,0,.41,0,.61,0h.1l.61,0h.09c.2,0,.39.06.59.1l.1,0,.51.15.09,0a4,4,0,0,1,.56.26,1.83,1.83,0,0,1,1.08,1.51V67.46A1.86,1.86,0,0,0,52.07,66Z"/><path id="Path_338" data-name="Path 338" class="cls-7" d="M39,71.4a4,4,0,0,1-1-2.61v3.34a3.54,3.54,0,0,0,.26,1.33A4.53,4.53,0,0,0,39,74.74Z"/><g id="Group_75" data-name="Group 75"><path id="Path_339" data-name="Path 339" class="cls-2" d="M44.18,74.26V77.6l-.71.41V74.67Z"/></g><path id="Path_340" data-name="Path 340" class="cls-2" d="M58.36,69.15c0,.11,0,.21,0,.32a2.5,2.5,0,0,1-.07.26c0,.1,0,.2-.09.31l-.1.25c-.05.11-.09.21-.15.32s-.09.15-.14.23a3.75,3.75,0,0,1-.24.36l-.17.21c-.13.16-.28.31-.43.47l-.17.17-.31.26-.29.23-.37.24L55.4,73a12.29,12.29,0,0,1-1.15.57l-.41.16-.8.29a16.87,16.87,0,0,1-1.7.42c-.31.06-.62.1-.94.14l-.41.06c-.44,0-.89.07-1.34.08h-.3c-.36,0-.73,0-1.09,0l-.31,0c-.43,0-.87-.08-1.29-.14l-.24,0c-.42-.07-.84-.15-1.25-.25v3.34l.59.13c.22,0,.44.08.67.12l.24,0,.1,0c.33,0,.66.08,1,.11H47l.31,0,.49,0c.2,0,.4,0,.6,0h.44c.38,0,.76,0,1.13-.08H50c.14,0,.27,0,.41-.06s.56-.07.83-.12l.11,0a16.87,16.87,0,0,0,1.7-.42l.11,0,.7-.26.41-.16a12.29,12.29,0,0,0,1.15-.57l.12-.07.26-.18.37-.25.28-.22c.11-.09.22-.17.31-.26l.06,0,.11-.11a4.79,4.79,0,0,0,.43-.47l.09-.1s0-.07.07-.1a3.75,3.75,0,0,0,.24-.36l.1-.15a.2.2,0,0,1,0-.08c.06-.11.1-.21.15-.32l.09-.18s0,0,0-.06a1.81,1.81,0,0,0,.09-.31l.06-.21a.13.13,0,0,1,0-.06c0-.11,0-.21,0-.32a1.49,1.49,0,0,0,0-.21V68.86A1.41,1.41,0,0,1,58.36,69.15Z"/><g id="Group_76" data-name="Group 76"><path id="Path_341" data-name="Path 341" class="cls-8" d="M44.3,77v3.34l-3.83-.48V76.53Z"/></g><g id="Group_77" data-name="Group 77"><path id="Path_342" data-name="Path 342" class="cls-2" d="M41.26,78.77v3.34l-4-.5V78.27Z"/></g><g id="Group_78" data-name="Group 78"><path id="Path_343" data-name="Path 343" class="cls-8" d="M37.28,78.27v3.34L33,84.12V80.78Z"/></g><g id="Group_79" data-name="Group 79"><path id="Path_344" data-name="Path 344" class="cls-8" d="M33.79,83.11v3.34l-4-.5V82.62Z"/></g><g id="Group_80" data-name="Group 80"><path id="Path_345" data-name="Path 345" class="cls-8" d="M22.1,84.15v3.34l-.55-2.62V81.53Z"/></g><g id="Group_81" data-name="Group 81"><path id="Path_346" data-name="Path 346" class="cls-5" d="M55.42,73a16,16,0,0,1-11.24,1.26l-.71.41L44.3,77l-3.83-.48.8,2.24-4-.5L33,80.78l.83,2.33-4-.5L30.63,85l-4-.5-4.54-.31-.54-2.62L39,71.4c-1.85-2.2-1.22-4.93,1.93-6.76a15.93,15.93,0,0,1,14.45,0C59.37,67,59.39,70.7,55.42,73Zm-8.5-4.07a5.66,5.66,0,0,0,5.16,0c1.43-.83,1.41-2.17,0-3a5.66,5.66,0,0,0-5.16,0c-1.41.83-1.41,2.17,0,3"/></g><path id="Path_347" data-name="Path 347" class="cls-2" d="M26.63,84.46l-4.53-.31v3.34l4.53.31,4,.5V85Z"/></g></g></svg>