<svg id="Layer_1" data-name="Layer 1" xmlns="http://www.w3.org/2000/svg" viewBox="0 0 92.69 177.58"><defs><style>.cls-1{fill:#909fba;}.cls-2{fill:#396caa;}.cls-3{fill:#d4ecff;}.cls-4{fill:#5793ce;}.cls-5{fill:#fafdff;}.cls-6{fill:#173d7a;}.cls-7{fill:#fff;}</style></defs><title>Artboard 22</title><path id="Path_206" data-name="Path 206" class="cls-1" d="M87.07,157.75,30.56,126.82a3.47,3.47,0,0,0-3.31,0L2.3,140.14a3.48,3.48,0,0,0,0,6.13l56.53,30.88a3.48,3.48,0,0,0,3.3,0L87,163.88A3.49,3.49,0,0,0,87.07,157.75Z"/><g id="Group_42" data-name="Group 42"><g id="Group_33" data-name="Group 33"><path id="Path_226" data-name="Path 226" class="cls-2" d="M92.67,145.93h0V32.47L47.57,20.66l-8.31-4.8a8.27,8.27,0,0,0-7.44.31l-7.75,4.48L0,20.63,7.13,130.16a2.14,2.14,0,0,0,1.28,2l45,34a8.3,8.3,0,0,0,7.44-.31l30-17.32C92.13,147.76,92.75,146.81,92.67,145.93Z"/><path id="Path_227" data-name="Path 227" class="cls-3" d="M35.81,15.13a8.54,8.54,0,0,0-4,1l-7.75,4.48L0,20.63V134.4a2.14,2.14,0,0,0,1.28,2l52.14,29.73a6.85,6.85,0,0,0,3.45.74l.54-114.48Z"/><path id="Path_228" data-name="Path 228" class="cls-4" d="M53.9,166.36a8.52,8.52,0,0,0,6-.07V51h-6Z"/><path id="Path_229" data-name="Path 229" class="cls-3" d="M53.43,52.4,1.29,22.67c-1.91-1.1-1.67-3,.53-4.3l30-17.32A8.27,8.27,0,0,1,39.26.74L91.4,30.47c1.91,1.1,1.67,3-.53,4.3l-30,17.32C58.66,53.36,55.33,53.5,53.43,52.4Z"/><path id="Path_230" data-name="Path 230" class="cls-5" d="M90.86,32.66,60.86,50a8.3,8.3,0,0,1-7.44.31L1.29,20.56a3,3,0,0,1-.95-.84c-.66,1.05-.36,2.2,1,3L53.43,52.4a8.3,8.3,0,0,0,7.44-.31l30-17.32c1.71-1,2.23-2.37,1.49-3.45A4.49,4.49,0,0,1,90.86,32.66Z"/><g id="Group_32" data-name="Group 32"><path id="Path_231" data-name="Path 231" class="cls-6" d="M54.9,40.35,20.19,20.23c-.89-.52-.78-1.41.25-2l14-8.1A3.85,3.85,0,0,1,38,10L72.67,30.1c.89.52.78,1.41-.25,2l-14,8.1A3.91,3.91,0,0,1,54.9,40.35Z"/><g id="Group_31" data-name="Group 31"><path id="Path_232" data-name="Path 232" class="cls-3" d="M36.16,21.13l-2-1.16c-.12-.07-.11-.2,0-.28l1.94-1.12a.54.54,0,0,1,.48,0l2,1.16c.12.07.11.2,0,.28l-1.94,1.12A.58.58,0,0,1,36.16,21.13Z"/><path id="Path_233" data-name="Path 233" class="cls-3" d="M42.88,25l-2-1.16c-.12-.07-.11-.2,0-.28l1.94-1.12a.54.54,0,0,1,.48,0l2,1.16c.12.07.11.2,0,.28L43.36,25A.54.54,0,0,1,42.88,25Z"/><path id="Path_234" data-name="Path 234" class="cls-3" d="M49.6,28.86l-2-1.16c-.12-.07-.11-.2,0-.28l1.94-1.12a.54.54,0,0,1,.48,0l2,1.16c.12.07.11.2,0,.28l-1.94,1.12A.58.58,0,0,1,49.6,28.86Z"/><path id="Path_235" data-name="Path 235" class="cls-3" d="M56.32,32.72l-2-1.16c-.12-.07-.11-.2,0-.28l1.94-1.12a.54.54,0,0,1,.48,0l2,1.16c.12.07.11.2,0,.28L56.8,32.7A.58.58,0,0,1,56.32,32.72Z"/></g><path id="Path_236" data-name="Path 236" class="cls-4" d="M20.19,20.23l0,0a1.28,1.28,0,0,1,.21-.14l14-8.11A3.85,3.85,0,0,1,38,11.86L72.63,32c.82-.59.87-1.39,0-1.87L38,10a3.85,3.85,0,0,0-3.48.14l-14,8.1C19.41,18.81,19.3,19.71,20.19,20.23Z"/></g></g><g id="Group_35" data-name="Group 35"><path id="Path_237" data-name="Path 237" class="cls-6" d="M66.72,74.88l19.74-11.3a4.82,4.82,0,0,0,2-3.84V52.68c0-1.48-.9-2.16-2-1.52L66.72,62.46a4.79,4.79,0,0,0-2,3.84v7.06C64.71,74.84,65.61,75.52,66.72,74.88Z"/><path id="Path_238" data-name="Path 238" class="cls-7" d="M87.44,50.94a2,2,0,0,1,.5,1.47v7.06a4.82,4.82,0,0,1-2,3.84L66.19,74.61a1.47,1.47,0,0,1-1,.21,1.2,1.2,0,0,0,1.51.05l19.74-11.3a4.82,4.82,0,0,0,2-3.84V52.67C88.47,51.67,88.05,51.05,87.44,50.94Z"/><g id="Group_34" data-name="Group 34"><path id="Path_239" data-name="Path 239" class="cls-2" d="M72.66,67.21l1.81-1a1.09,1.09,0,0,0,.44-.84V63.39c0-.32-.2-.47-.44-.33l-1.81,1a1,1,0,0,0-.44.84v1.93C72.22,67.2,72.42,67.35,72.66,67.21Z"/><path id="Path_240" data-name="Path 240" class="cls-7" d="M78.71,63.71l1.81-1.05a1.09,1.09,0,0,0,.44-.84V59.9c0-.32-.2-.47-.44-.33l-1.81,1a1,1,0,0,0-.44.84v1.93C78.27,63.71,78.47,63.85,78.71,63.71Z"/></g></g><g id="Group_37" data-name="Group 37"><path id="Path_241" data-name="Path 241" class="cls-6" d="M66.72,125.88l19.74-11.3a4.82,4.82,0,0,0,2-3.84v-7.06c0-1.48-.9-2.16-2-1.52l-19.74,11.3a4.79,4.79,0,0,0-2,3.84v7.06C64.71,125.84,65.61,126.52,66.72,125.88Z"/><path id="Path_242" data-name="Path 242" class="cls-7" d="M87.44,101.94a2,2,0,0,1,.5,1.47v7.06a4.82,4.82,0,0,1-2,3.84l-19.74,11.3a1.47,1.47,0,0,1-1,.21,1.2,1.2,0,0,0,1.51.05l19.74-11.3a4.82,4.82,0,0,0,2-3.84v-7.06C88.47,102.67,88.05,102.05,87.44,101.94Z"/><g id="Group_36" data-name="Group 36"><path id="Path_243" data-name="Path 243" class="cls-2" d="M72.66,118.21l1.81-1a1.09,1.09,0,0,0,.44-.84v-1.93c0-.32-.2-.47-.44-.33l-1.81,1a1,1,0,0,0-.44.84v1.93C72.22,118.2,72.42,118.35,72.66,118.21Z"/><path id="Path_244" data-name="Path 244" class="cls-7" d="M78.71,114.72l1.81-1a1.09,1.09,0,0,0,.44-.84V110.9c0-.32-.2-.47-.44-.33l-1.81,1.05a1,1,0,0,0-.44.84v1.93C78.27,114.71,78.47,114.86,78.71,114.72Z"/></g></g><g id="Group_39" data-name="Group 39"><path id="Path_245" data-name="Path 245" class="cls-6" d="M66.72,151.38l19.74-11.3a4.82,4.82,0,0,0,2-3.84v-7.06c0-1.48-.9-2.16-2-1.52L66.72,139a4.79,4.79,0,0,0-2,3.84v7.06C64.71,151.34,65.61,152,66.72,151.38Z"/><path id="Path_246" data-name="Path 246" class="cls-7" d="M87.44,127.45a2,2,0,0,1,.5,1.47V136a4.82,4.82,0,0,1-2,3.84l-19.74,11.3a1.47,1.47,0,0,1-1,.21,1.2,1.2,0,0,0,1.51,0l19.74-11.3a4.82,4.82,0,0,0,2-3.84v-7.06C88.47,128.17,88.05,127.55,87.44,127.45Z"/><g id="Group_38" data-name="Group 38"><path id="Path_247" data-name="Path 247" class="cls-2" d="M72.66,143.71l1.81-1.05a1.09,1.09,0,0,0,.44-.84v-1.93c0-.32-.2-.47-.44-.33l-1.81,1.05a1,1,0,0,0-.44.84v1.93C72.22,143.7,72.42,143.85,72.66,143.71Z"/><path id="Path_248" data-name="Path 248" class="cls-7" d="M78.71,140.22l1.81-1.05a1.09,1.09,0,0,0,.44-.84V136.4c0-.32-.2-.47-.44-.33l-1.81,1.05a1,1,0,0,0-.44.84v1.93C78.27,140.21,78.47,140.36,78.71,140.22Z"/></g></g><g id="Group_41" data-name="Group 41"><path id="Path_249" data-name="Path 249" class="cls-6" d="M66.72,100.38l19.74-11.3a4.82,4.82,0,0,0,2-3.84V78.18c0-1.48-.9-2.16-2-1.52L66.72,88a4.79,4.79,0,0,0-2,3.84v7.06C64.71,100.34,65.61,101,66.72,100.38Z"/><path id="Path_250" data-name="Path 250" class="cls-7" d="M87.44,76.44a2,2,0,0,1,.5,1.47V85a4.82,4.82,0,0,1-2,3.84l-19.74,11.3a1.47,1.47,0,0,1-1,.21,1.2,1.2,0,0,0,1.51.05l19.74-11.3a4.82,4.82,0,0,0,2-3.84V78.17C88.47,77.17,88.05,76.55,87.44,76.44Z"/><g id="Group_40" data-name="Group 40"><path id="Path_251" data-name="Path 251" class="cls-2" d="M72.66,92.71l1.81-1a1.09,1.09,0,0,0,.44-.84V88.89c0-.32-.2-.47-.44-.33l-1.81,1a1,1,0,0,0-.44.84v1.93C72.22,92.7,72.42,92.85,72.66,92.71Z"/><path id="Path_252" data-name="Path 252" class="cls-7" d="M78.71,89.21l1.81-1a1.09,1.09,0,0,0,.44-.84V85.4c0-.32-.2-.47-.44-.33l-1.81,1.05a1,1,0,0,0-.44.84v1.93C78.27,89.21,78.47,89.35,78.71,89.21Z"/></g></g></g><g id="Group_43" data-name="Group 43"><path id="Path_253" data-name="Path 253" class="cls-4" d="M49.63,67.65,4.09,41.36a4.43,4.43,0,0,1-1.85-3.53V29.15c0-1.36.83-2,1.85-1.4L49.62,54a4.41,4.41,0,0,1,1.85,3.53v8.68C51.47,67.61,50.65,68.24,49.63,67.65Z"/><path id="Path_254" data-name="Path 254" class="cls-3" d="M14.35,41.69,7.94,38A2.2,2.2,0,0,1,7,36.25H7c0-.67.41-1,.91-.69l6.41,3.7A2.17,2.17,0,0,1,15.26,41h0C15.25,41.67,14.85,42,14.35,41.69Z"/><path id="Path_255" data-name="Path 255" class="cls-6" d="M19.8,43.63c0,.67-.47.94-1.05.61a2.33,2.33,0,0,1-1.05-1.82c0-.67.47-.94,1.05-.61A2.32,2.32,0,0,1,19.8,43.63Z"/><path id="Path_256" data-name="Path 256" class="cls-6" d="M23.51,45.77c0,.67-.47.94-1.05.61a2.33,2.33,0,0,1-1.05-1.82c0-.67.47-.94,1.05-.61A2.32,2.32,0,0,1,23.51,45.77Z"/><path id="Path_257" data-name="Path 257" class="cls-3" d="M27.21,47.91c0,.67-.47.94-1.05.61a2.33,2.33,0,0,1-1.05-1.82c0-.67.47-.94,1.05-.61A2.32,2.32,0,0,1,27.21,47.91Z"/><path id="Path_258" data-name="Path 258" class="cls-6" d="M30.91,50.05c0,.67-.47.94-1.05.61a2.33,2.33,0,0,1-1.05-1.82c0-.67.47-.94,1.05-.61A2.32,2.32,0,0,1,30.91,50.05Z"/><path id="Path_259" data-name="Path 259" class="cls-6" d="M46.52,61l-2.16-1.25a1.4,1.4,0,0,1-.58-1.11V56.33c0-.43.26-.63.58-.44l2.16,1.25a1.4,1.4,0,0,1,.58,1.11v2.28C47.1,61,46.84,61.16,46.52,61Z"/></g><g id="Group_44" data-name="Group 44"><path id="Path_260" data-name="Path 260" class="cls-4" d="M49.63,83,4.09,56.67a4.43,4.43,0,0,1-1.85-3.53V44.46c0-1.36.83-2,1.85-1.4L49.62,69.35a4.41,4.41,0,0,1,1.85,3.53v8.68C51.47,82.93,50.65,83.55,49.63,83Z"/><path id="Path_261" data-name="Path 261" class="cls-3" d="M14.35,57,7.94,53.3A2.2,2.2,0,0,1,7,51.56H7c0-.67.41-1,.91-.69l6.41,3.7a2.17,2.17,0,0,1,.91,1.74h0C15.25,57,14.85,57.29,14.35,57Z"/><path id="Path_262" data-name="Path 262" class="cls-7" d="M19.8,58.94c0,.67-.47.94-1.05.61a2.33,2.33,0,0,1-1.05-1.82c0-.67.47-.94,1.05-.61A2.32,2.32,0,0,1,19.8,58.94Z"/><path id="Path_263" data-name="Path 263" class="cls-6" d="M23.51,61.08c0,.67-.47.94-1.05.61a2.33,2.33,0,0,1-1.05-1.82c0-.67.47-.94,1.05-.61A2.32,2.32,0,0,1,23.51,61.08Z"/><ellipse id="Ellipse_1" data-name="Ellipse 1" class="cls-3" cx="26.16" cy="62.61" rx="0.86" ry="1.48" transform="translate(-27.8 21.47) rotate(-30)"/><ellipse id="Ellipse_2" data-name="Ellipse 2" class="cls-6" cx="29.86" cy="64.75" rx="0.86" ry="1.48" transform="translate(-28.37 23.6) rotate(-30)"/><path id="Path_264" data-name="Path 264" class="cls-6" d="M46.52,76.28,44.36,75a1.4,1.4,0,0,1-.58-1.11V71.64c0-.43.26-.63.58-.44l2.16,1.25a1.4,1.4,0,0,1,.58,1.11v2.28C47.1,76.27,46.84,76.47,46.52,76.28Z"/></g><g id="Group_45" data-name="Group 45"><path id="Path_265" data-name="Path 265" class="cls-4" d="M49.63,98.27,4.09,72a4.43,4.43,0,0,1-1.85-3.53V59.77c0-1.36.83-2,1.85-1.4L49.62,84.66a4.41,4.41,0,0,1,1.85,3.53v8.68C51.47,98.24,50.65,98.86,49.63,98.27Z"/><path id="Path_266" data-name="Path 266" class="cls-3" d="M14.35,72.31l-6.41-3.7A2.2,2.2,0,0,1,7,66.87H7c0-.67.41-1,.91-.69l6.41,3.7a2.17,2.17,0,0,1,.91,1.74h0C15.25,72.29,14.85,72.6,14.35,72.31Z"/><path id="Path_267" data-name="Path 267" class="cls-7" d="M19.8,74.25c0,.67-.47.94-1.05.61A2.33,2.33,0,0,1,17.7,73c0-.67.47-.94,1.05-.61A2.32,2.32,0,0,1,19.8,74.25Z"/><path id="Path_268" data-name="Path 268" class="cls-6" d="M23.51,76.39c0,.67-.47.94-1.05.61a2.33,2.33,0,0,1-1.05-1.82c0-.67.47-.94,1.05-.61A2.32,2.32,0,0,1,23.51,76.39Z"/><path id="Path_269" data-name="Path 269" class="cls-3" d="M27.21,78.53c0,.67-.47.94-1.05.61a2.33,2.33,0,0,1-1.05-1.82c0-.67.47-.94,1.05-.61A2.32,2.32,0,0,1,27.21,78.53Z"/><path id="Path_270" data-name="Path 270" class="cls-6" d="M30.91,80.67c0,.67-.47.94-1.05.61a2.33,2.33,0,0,1-1.05-1.82c0-.67.47-.94,1.05-.61A2.32,2.32,0,0,1,30.91,80.67Z"/><path id="Path_271" data-name="Path 271" class="cls-6" d="M46.52,91.59l-2.16-1.25a1.4,1.4,0,0,1-.58-1.11V87c0-.43.26-.63.58-.44l2.16,1.25a1.4,1.4,0,0,1,.58,1.11v2.28C47.1,91.58,46.84,91.78,46.52,91.59Z"/></g><g id="Group_46" data-name="Group 46"><path id="Path_272" data-name="Path 272" class="cls-4" d="M49.63,113.58,4.09,87.29a4.43,4.43,0,0,1-1.85-3.53V75.08c0-1.36.83-2,1.85-1.4L49.62,100a4.41,4.41,0,0,1,1.85,3.53v8.68C51.47,113.55,50.65,114.17,49.63,113.58Z"/><path id="Path_273" data-name="Path 273" class="cls-3" d="M14.35,87.62l-6.41-3.7A2.2,2.2,0,0,1,7,82.18H7c0-.67.41-1,.91-.69l6.41,3.7a2.17,2.17,0,0,1,.91,1.74h0C15.25,87.61,14.85,87.91,14.35,87.62Z"/><path id="Path_274" data-name="Path 274" class="cls-6" d="M19.8,89.56c0,.67-.47.94-1.05.61a2.33,2.33,0,0,1-1.05-1.82c0-.67.47-.94,1.05-.61A2.32,2.32,0,0,1,19.8,89.56Z"/><path id="Path_275" data-name="Path 275" class="cls-6" d="M23.51,91.7c0,.67-.47.94-1.05.61a2.33,2.33,0,0,1-1.05-1.82c0-.67.47-.94,1.05-.61A2.32,2.32,0,0,1,23.51,91.7Z"/><path id="Path_276" data-name="Path 276" class="cls-3" d="M27.21,93.84c0,.67-.47.94-1.05.61a2.33,2.33,0,0,1-1.05-1.82c0-.67.47-.94,1.05-.61A2.32,2.32,0,0,1,27.21,93.84Z"/><ellipse id="Ellipse_3" data-name="Ellipse 3" class="cls-6" cx="29.86" cy="95.37" rx="0.86" ry="1.48" transform="translate(-43.68 27.71) rotate(-30)"/><path id="Path_277" data-name="Path 277" class="cls-3" d="M46.52,106.9l-2.16-1.25a1.4,1.4,0,0,1-.58-1.11v-2.28c0-.43.26-.63.58-.44l2.16,1.25a1.4,1.4,0,0,1,.58,1.11v2.28C47.1,106.89,46.84,107.09,46.52,106.9Z"/></g><g id="Group_47" data-name="Group 47"><path id="Path_278" data-name="Path 278" class="cls-4" d="M49.63,128.89,4.09,102.6a4.43,4.43,0,0,1-1.85-3.53V90.4c0-1.36.83-2,1.85-1.4l45.53,26.29a4.41,4.41,0,0,1,1.85,3.53v8.68C51.47,128.86,50.65,129.48,49.63,128.89Z"/><path id="Path_279" data-name="Path 279" class="cls-3" d="M14.35,102.93l-6.41-3.7A2.2,2.2,0,0,1,7,97.49H7c0-.67.41-1,.91-.69l6.41,3.7a2.17,2.17,0,0,1,.91,1.74h0C15.25,102.92,14.85,103.22,14.35,102.93Z"/><path id="Path_280" data-name="Path 280" class="cls-6" d="M19.8,104.87c0,.67-.47.94-1.05.61a2.33,2.33,0,0,1-1.05-1.82c0-.67.47-.94,1.05-.61A2.32,2.32,0,0,1,19.8,104.87Z"/><path id="Path_281" data-name="Path 281" class="cls-7" d="M23.51,107c0,.67-.47.94-1.05.61a2.33,2.33,0,0,1-1.05-1.82c0-.67.47-.94,1.05-.61A2.32,2.32,0,0,1,23.51,107Z"/><path id="Path_282" data-name="Path 282" class="cls-3" d="M27.21,109.15c0,.67-.47.94-1.05.61a2.33,2.33,0,0,1-1.05-1.82c0-.67.47-.94,1.05-.61A2.32,2.32,0,0,1,27.21,109.15Z"/><path id="Path_283" data-name="Path 283" class="cls-7" d="M30.91,111.29c0,.67-.47.94-1.05.61a2.33,2.33,0,0,1-1.05-1.82c0-.67.47-.94,1.05-.61A2.32,2.32,0,0,1,30.91,111.29Z"/><path id="Path_284" data-name="Path 284" class="cls-3" d="M46.52,122.21,44.36,121a1.4,1.4,0,0,1-.58-1.11v-2.28c0-.43.26-.63.58-.44l2.16,1.25a1.4,1.4,0,0,1,.58,1.11v2.28C47.1,122.2,46.84,122.4,46.52,122.21Z"/></g><g id="Group_48" data-name="Group 48"><path id="Path_285" data-name="Path 285" class="cls-4" d="M49.63,144.2,4.09,117.92a4.43,4.43,0,0,1-1.85-3.53v-8.68c0-1.36.83-2,1.85-1.4L49.62,130.6a4.41,4.41,0,0,1,1.85,3.53v8.68C51.47,144.17,50.65,144.79,49.63,144.2Z"/><path id="Path_286" data-name="Path 286" class="cls-3" d="M14.35,118.24l-6.41-3.7A2.2,2.2,0,0,1,7,112.8H7c0-.67.41-1,.91-.69l6.41,3.7a2.17,2.17,0,0,1,.91,1.74h0C15.25,118.23,14.85,118.53,14.35,118.24Z"/><path id="Path_287" data-name="Path 287" class="cls-6" d="M19.8,120.18c0,.67-.47.94-1.05.61A2.33,2.33,0,0,1,17.7,119c0-.67.47-.94,1.05-.61A2.32,2.32,0,0,1,19.8,120.18Z"/><path id="Path_288" data-name="Path 288" class="cls-6" d="M23.51,122.32c0,.67-.47.94-1.05.61a2.33,2.33,0,0,1-1.05-1.82c0-.67.47-.94,1.05-.61A2.32,2.32,0,0,1,23.51,122.32Z"/><path id="Path_289" data-name="Path 289" class="cls-3" d="M27.21,124.46c0,.67-.47.94-1.05.61a2.33,2.33,0,0,1-1.05-1.82c0-.67.47-.94,1.05-.61A2.32,2.32,0,0,1,27.21,124.46Z"/><path id="Path_290" data-name="Path 290" class="cls-6" d="M30.91,126.6c0,.67-.47.94-1.05.61a2.33,2.33,0,0,1-1.05-1.82c0-.67.47-.94,1.05-.61A2.32,2.32,0,0,1,30.91,126.6Z"/><path id="Path_291" data-name="Path 291" class="cls-6" d="M46.52,137.53l-2.16-1.25a1.4,1.4,0,0,1-.58-1.11v-2.28c0-.43.26-.63.58-.44l2.16,1.25a1.4,1.4,0,0,1,.58,1.11v2.28C47.1,137.51,46.84,137.71,46.52,137.53Z"/></g><g id="Group_49" data-name="Group 49"><path id="Path_292" data-name="Path 292" class="cls-4" d="M49.63,159.52,4.09,133.23a4.43,4.43,0,0,1-1.85-3.53V121c0-1.36.83-2,1.85-1.39l45.53,26.29a4.41,4.41,0,0,1,1.85,3.53v8.68C51.47,159.48,50.65,160.1,49.63,159.52Z"/><path id="Path_293" data-name="Path 293" class="cls-3" d="M14.35,133.56l-6.41-3.7A2.2,2.2,0,0,1,7,128.12H7c0-.67.41-1,.91-.69l6.41,3.7a2.17,2.17,0,0,1,.91,1.74h0C15.25,133.54,14.85,133.85,14.35,133.56Z"/><path id="Path_294" data-name="Path 294" class="cls-7" d="M43.77,149.62c0,1.26-.89,1.78-2,1.14a4.36,4.36,0,0,1-2-3.43c0-1.26.89-1.78,2-1.14A4.35,4.35,0,0,1,43.77,149.62Z"/><path id="Path_295" data-name="Path 295" class="cls-6" d="M19.8,135.69c0,.67-.47.94-1.05.61a2.33,2.33,0,0,1-1.05-1.82c0-.67.47-.94,1.05-.61A2.32,2.32,0,0,1,19.8,135.69Z"/><path id="Path_296" data-name="Path 296" class="cls-3" d="M23.51,137.82c0,.67-.47.94-1.05.61a2.33,2.33,0,0,1-1.05-1.82c0-.67.47-.94,1.05-.61A2.32,2.32,0,0,1,23.51,137.82Z"/><ellipse id="Ellipse_4" data-name="Ellipse 4" class="cls-6" cx="26.16" cy="139.35" rx="0.86" ry="1.48" transform="translate(-66.17 31.75) rotate(-30)"/></g></svg>