<svg id="Layer_1" data-name="Layer 1" xmlns="http://www.w3.org/2000/svg" viewBox="0 0 299.28 284.78"><defs><style>.cls-1{fill:#344257;}.cls-2{fill:#5b7a93;}.cls-3{fill:#43576e;}.cls-4{fill:#e8e8e8;}.cls-5{fill:#fff;}.cls-6{fill:#5f859d;}.cls-7{fill:#7dadcb;}.cls-8{fill:#476278;}.cls-9{fill:#e7e7e7;}.cls-10{fill:#384b61;}</style></defs><title>Artboard 19</title><g id="Group_3" data-name="Group 3"><g id="Group_4" data-name="Group 4"><path id="Path_32" data-name="Path 32" class="cls-1" d="M293.76,83.5,150.64.88a5.78,5.78,0,0,0-4.86-.59l0,0-.26.1-.07,0-5.16,2,4.63,2.28a2,2,0,0,0-.06.26L121.57,111c-1.16,5.31,1.18,11.51,5.22,13.85l139.67,80.64-.5,5.91,5.66-2.2a7.9,7.9,0,0,0,4-5.76L299,97.34C300.14,92,297.8,85.84,293.76,83.5Z"/><path id="Path_33" data-name="Path 33" class="cls-2" d="M293.76,83.5,150.64.88a5.78,5.78,0,0,0-4.86-.59l0,0-.26.1-.07,0-5.16,2,4.63,2.28a2,2,0,0,0-.06.26L129.51,74.84l70,54.55,98.73-40.18A11.1,11.1,0,0,0,293.76,83.5Z"/><path id="Path_34" data-name="Path 34" class="cls-3" d="M288.36,99.82l10.9-4.64c.2-4.22-1.55-8.58-4.41-10.91L277.6,91.52Z"/><path id="Path_35" data-name="Path 35" class="cls-4" d="M261,210.85,117.87,128.22c-4-2.34-6.38-8.54-5.21-13.85L136,8.25c1.16-5.31,5.4-7.72,9.44-5.38L288.53,85.49c4,2.34,6.38,8.54,5.22,13.85L270.44,205.46C269.26,210.77,265,213.18,261,210.85Z"/><path id="Path_36" data-name="Path 36" class="cls-5" d="M257.88,203l-134.6-77.67c-3.7-2.14-5.83-7.81-4.77-12.66l21.33-97.11c1.07-4.86,4.93-7.07,8.64-4.92l134.6,77.67c3.71,2.14,5.84,7.81,4.78,12.67L266.52,198C265.46,202.89,261.59,205.1,257.88,203Z"/><path id="Path_37" data-name="Path 37" class="cls-5" d="M257.88,203l-134.6-77.67c-3.7-2.14-5.83-7.81-4.77-12.66l21.33-97.11c1.07-4.86,4.93-7.07,8.64-4.92l134.6,77.67c3.71,2.14,5.84,7.81,4.78,12.67L266.52,198C265.46,202.89,261.59,205.1,257.88,203Z"/><path id="Path_38" data-name="Path 38" class="cls-1" d="M263,214.45l-19.57-2.58L117.11,139c-4-2.34-11.12-2-15.79.66L11.83,191.25,0,189.69v6.72H0c-.07,1.55.8,3.05,2.71,4.14l143.13,82.63c4,2.34,11.12,2,15.79-.66l46.94-27.09,50.52-29.15c2.64-1.53,3.94-3.48,3.86-5.31h0Z"/><path id="Path_39" data-name="Path 39" class="cls-6" d="M168.07,168.37l-9-5.18H60.47L11.83,191.25,0,189.69v6.72H0c-.07,1.55.8,3,2.71,4.14l143.13,82.63a14.73,14.73,0,0,0,8.15,1.53Z"/><path id="Path_40" data-name="Path 40" class="cls-7" d="M5.26,190.39,0,189.69v6.72H0c-.07,1.55.8,3,2.71,4.14L5.24,202V190.39Z"/><path id="Path_41" data-name="Path 41" class="cls-8" d="M147.29,283.85a18.23,18.23,0,0,0,13.42-.84v-15H147.29Z"/><path id="Path_42" data-name="Path 42" class="cls-9" d="M145.85,276.48,2.74,193.85c-4-2.34-3.54-6.42,1.14-9.12l97.45-56.25c4.68-2.7,11.75-3,15.8-.66l143.12,82.63c4,2.34,3.54,6.42-1.14,9.12l-97.46,56.24C157,278.52,149.9,278.82,145.85,276.48Z"/><path id="Path_43" data-name="Path 43" class="cls-5" d="M259.1,217.12l-97.46,56.24c-4.67,2.7-11.75,3-15.79.66L2.74,191.4a5.31,5.31,0,0,1-2.52-2.76c-.63,1.92.17,3.85,2.52,5.2l143.12,82.63c4,2.34,11.12,2,15.79-.66l97.46-56.24c3.14-1.81,4.39-4.25,3.66-6.37A7.71,7.71,0,0,1,259.1,217.12Z"/><g id="Group_3-2" data-name="Group 3-2"><path id="Path_44" data-name="Path 44" class="cls-10" d="M63.6,166.5l-6.47-3.74c-.51-.3-.45-.82.15-1.17l7.64-4.42a2.27,2.27,0,0,1,2-.09l6.47,3.73c.52.3.45.83-.14,1.18l-7.65,4.42A2.3,2.3,0,0,1,63.6,166.5Z"/><path id="Path_45" data-name="Path 45" class="cls-10" d="M73.6,172.27l-6.47-3.73c-.52-.3-.45-.83.14-1.18l7.65-4.42a2.27,2.27,0,0,1,2-.09l6.47,3.74c.51.3.45.82-.15,1.17l-7.64,4.42A2.27,2.27,0,0,1,73.6,172.27Z"/><path id="Path_46" data-name="Path 46" class="cls-10" d="M83.6,178l-6.47-3.73c-.52-.3-.46-.83.14-1.18l7.64-4.41a2.24,2.24,0,0,1,2-.09l6.47,3.73c.52.3.45.83-.14,1.17L85.63,178A2.24,2.24,0,0,1,83.6,178Z"/><path id="Path_47" data-name="Path 47" class="cls-10" d="M97.43,173.26,91,169.53c-.52-.3-.45-.83.14-1.17l6.42-3.71a2.27,2.27,0,0,1,2-.09l6.47,3.73c.51.3.45.83-.14,1.18l-6.42,3.7A2.15,2.15,0,0,1,97.43,173.26Z"/><path id="Path_48" data-name="Path 48" class="cls-10" d="M107.44,179,101,175.3c-.52-.3-.45-.82.14-1.17l6.42-3.71a2.27,2.27,0,0,1,2-.09l6.47,3.73c.51.3.45.83-.15,1.18L109.47,179A2.21,2.21,0,0,1,107.44,179Z"/><path id="Path_49" data-name="Path 49" class="cls-10" d="M117.43,184.82,111,181.09c-.52-.3-.46-.83.14-1.17l6.42-3.71a2.25,2.25,0,0,1,2-.09l6.47,3.73c.52.3.46.83-.14,1.18l-6.41,3.7A2.29,2.29,0,0,1,117.43,184.82Z"/><path id="Path_50" data-name="Path 50" class="cls-10" d="M127.43,190.59,121,186.86c-.52-.3-.45-.82.14-1.17l6.42-3.71a2.27,2.27,0,0,1,2-.09l6.47,3.73c.52.3.45.83-.14,1.18l-6.42,3.7A2.24,2.24,0,0,1,127.43,190.59Z"/><path id="Path_51" data-name="Path 51" class="cls-10" d="M137.44,196.37,131,192.64c-.52-.3-.45-.83.14-1.18l6.42-3.71a2.27,2.27,0,0,1,2-.09L146,191.4c.52.3.45.82-.14,1.17l-6.42,3.71A2.27,2.27,0,0,1,137.44,196.37Z"/><path id="Path_52" data-name="Path 52" class="cls-10" d="M147.44,202.14,141,198.41c-.52-.3-.46-.83.14-1.18l6.42-3.7a2.24,2.24,0,0,1,2-.09l6.47,3.73c.51.3.45.83-.15,1.17l-6.42,3.71A2.25,2.25,0,0,1,147.44,202.14Z"/><path id="Path_53" data-name="Path 53" class="cls-10" d="M157.43,207.91,151,204.18c-.51-.3-.45-.83.14-1.17l6.42-3.71a2.27,2.27,0,0,1,2-.09l6.47,3.73c.52.3.45.83-.14,1.18l-6.42,3.7A2.24,2.24,0,0,1,157.43,207.91Z"/><path id="Path_54" data-name="Path 54" class="cls-10" d="M167.44,213.69,161,210c-.52-.3-.45-.82.14-1.17l6.42-3.71a2.27,2.27,0,0,1,2-.09l6.47,3.73c.52.3.45.83-.14,1.18l-6.42,3.71A2.27,2.27,0,0,1,167.44,213.69Z"/><path id="Path_55" data-name="Path 55" class="cls-10" d="M177.44,219.46,171,215.73c-.52-.3-.45-.83.14-1.18l6.42-3.7a2.24,2.24,0,0,1,2-.09l6.47,3.73c.51.3.45.82-.15,1.17l-6.41,3.71A2.27,2.27,0,0,1,177.44,219.46Z"/><path id="Path_56" data-name="Path 56" class="cls-10" d="M187.43,225.23,181,221.5c-.51-.3-.45-.83.15-1.17l6.41-3.71a2.27,2.27,0,0,1,2-.09l6.47,3.73c.52.3.45.83-.14,1.18l-6.42,3.7A2.27,2.27,0,0,1,187.43,225.23Z"/><path id="Path_57" data-name="Path 57" class="cls-10" d="M112.17,170.54l-6.48-3.73c-.51-.3-.45-.83.15-1.18l6.42-3.71a2.25,2.25,0,0,1,2-.09l6.47,3.74c.52.3.46.82-.14,1.17l-6.42,3.71A2.25,2.25,0,0,1,112.17,170.54Z"/><path id="Path_58" data-name="Path 58" class="cls-10" d="M102,164.67l-6.47-3.73c-.51-.3-.45-.82.15-1.17l6.41-3.71a2.27,2.27,0,0,1,2-.09l6.47,3.73c.52.3.46.83-.14,1.18l-6.42,3.7A2.24,2.24,0,0,1,102,164.67Z"/><path id="Path_59" data-name="Path 59" class="cls-10" d="M91.85,158.81,77.9,150.76c-.51-.3-.45-.82.14-1.17l6.42-3.71a2.27,2.27,0,0,1,2-.09l14,8.05c.52.3.45.83-.14,1.17l-6.42,3.71A2.27,2.27,0,0,1,91.85,158.81Z"/><path id="Path_60" data-name="Path 60" class="cls-10" d="M99,151.67l-11.31-6.54c-.52-.3-.45-.82.14-1.17l6.42-3.71a2.27,2.27,0,0,1,2-.09l11.31,6.54c.52.3.45.82-.14,1.17L101,151.58A2.27,2.27,0,0,1,99,151.67Z"/><path id="Path_61" data-name="Path 61" class="cls-10" d="M122.17,176.31l-6.47-3.73c-.51-.3-.45-.83.15-1.18l6.41-3.7a2.24,2.24,0,0,1,2-.09l6.47,3.73c.52.3.46.83-.14,1.17l-6.42,3.71A2.27,2.27,0,0,1,122.17,176.31Z"/><path id="Path_62" data-name="Path 62" class="cls-10" d="M132.17,182.08l-6.47-3.73c-.52-.3-.45-.83.14-1.17l6.42-3.71a2.27,2.27,0,0,1,2-.09l6.47,3.73c.52.3.45.83-.14,1.18L134.2,182A2.24,2.24,0,0,1,132.17,182.08Z"/><path id="Path_63" data-name="Path 63" class="cls-10" d="M142.17,187.86l-6.47-3.74c-.52-.3-.46-.82.14-1.17l6.42-3.71a2.25,2.25,0,0,1,2-.09l6.47,3.73c.52.3.46.83-.14,1.18l-6.42,3.71A2.25,2.25,0,0,1,142.17,187.86Z"/><path id="Path_64" data-name="Path 64" class="cls-10" d="M152.18,193.63l-6.47-3.73c-.52-.3-.46-.83.14-1.18l6.42-3.7a2.22,2.22,0,0,1,2-.09l6.47,3.73c.52.3.46.82-.14,1.17l-6.42,3.71A2.25,2.25,0,0,1,152.18,193.63Z"/><path id="Path_65" data-name="Path 65" class="cls-10" d="M162.17,199.4l-6.47-3.73c-.52-.3-.45-.83.14-1.17l6.42-3.71a2.27,2.27,0,0,1,2-.09l6.47,3.73c.52.3.45.83-.14,1.18l-6.42,3.7A2.27,2.27,0,0,1,162.17,199.4Z"/><path id="Path_66" data-name="Path 66" class="cls-10" d="M172.17,205.18l-6.47-3.74c-.52-.3-.45-.82.14-1.17l6.42-3.71a2.27,2.27,0,0,1,2-.09l6.47,3.73c.51.3.45.83-.14,1.18l-6.42,3.71A2.3,2.3,0,0,1,172.17,205.18Z"/><path id="Path_67" data-name="Path 67" class="cls-10" d="M182.18,211l-6.47-3.73c-.52-.3-.45-.83.14-1.18l6.42-3.71a2.27,2.27,0,0,1,2-.09l6.47,3.74c.51.3.45.82-.14,1.17l-6.42,3.71A2.27,2.27,0,0,1,182.18,211Z"/><path id="Path_68" data-name="Path 68" class="cls-10" d="M192.17,216.72,185.7,213c-.51-.3-.45-.83.15-1.18l6.41-3.7a2.24,2.24,0,0,1,2-.09l6.47,3.73c.52.3.45.83-.14,1.17l-6.42,3.71A2.21,2.21,0,0,1,192.17,216.72Z"/><path id="Path_69" data-name="Path 69" class="cls-10" d="M202.17,222.49l-6.47-3.73c-.52-.3-.45-.82.14-1.17l6.42-3.71a2.27,2.27,0,0,1,2-.09l6.47,3.73c.51.3.45.83-.14,1.18l-6.42,3.7A2.15,2.15,0,0,1,202.17,222.49Z"/><path id="Path_70" data-name="Path 70" class="cls-10" d="M220,232.76l-14.13-8.16c-.51-.3-.45-.83.15-1.18l6.42-3.7a2.22,2.22,0,0,1,2-.09l14.13,8.16c.52.3.45.83-.14,1.17L222,232.67A2.27,2.27,0,0,1,220,232.76Z"/><path id="Path_71" data-name="Path 71" class="cls-10" d="M239.42,221.53l-11.92-6.89c-.52-.3-.46-.83.14-1.17l6.42-3.71a2.25,2.25,0,0,1,2-.09L248,216.55c.52.3.46.83-.14,1.18l-6.42,3.71A2.28,2.28,0,0,1,239.42,221.53Z"/><path id="Path_72" data-name="Path 72" class="cls-10" d="M139.69,175.17l-6.47-3.73c-.52-.3-.45-.82.14-1.17l6.42-3.71a2.27,2.27,0,0,1,2-.09l6.47,3.73c.51.3.45.83-.15,1.18l-6.41,3.7A2.15,2.15,0,0,1,139.69,175.17Z"/><path id="Path_73" data-name="Path 73" class="cls-10" d="M129.43,169.26,123,165.53c-.51-.3-.45-.83.14-1.18l6.42-3.7a2.24,2.24,0,0,1,2-.09l6.47,3.73c.52.3.45.82-.14,1.17l-6.42,3.71A2.24,2.24,0,0,1,129.43,169.26Z"/><path id="Path_74" data-name="Path 74" class="cls-10" d="M119.18,163.34l-6.47-3.73c-.52-.3-.45-.82.14-1.17l6.42-3.71a2.27,2.27,0,0,1,2-.09l6.47,3.73c.51.3.45.83-.15,1.18l-6.41,3.7A2.24,2.24,0,0,1,119.18,163.34Z"/><path id="Path_75" data-name="Path 75" class="cls-10" d="M108.94,157.43l-6.47-3.73c-.52-.3-.46-.83.14-1.18l6.42-3.7a2.22,2.22,0,0,1,2-.09l6.47,3.73c.52.3.46.82-.14,1.17L111,157.34A2.25,2.25,0,0,1,108.94,157.43Z"/><path id="Path_76" data-name="Path 76" class="cls-10" d="M149.68,181l-6.47-3.73c-.51-.3-.45-.83.14-1.18l6.42-3.71a2.27,2.27,0,0,1,2-.09l6.47,3.74c.52.3.45.82-.14,1.17l-6.42,3.71A2.21,2.21,0,0,1,149.68,181Z"/><path id="Path_77" data-name="Path 77" class="cls-10" d="M159.68,186.72,153.21,183c-.52-.3-.45-.83.14-1.18l6.42-3.7a2.24,2.24,0,0,1,2-.09l6.47,3.73c.51.3.45.83-.14,1.17l-6.42,3.71A2.18,2.18,0,0,1,159.68,186.72Z"/><path id="Path_78" data-name="Path 78" class="cls-10" d="M169.69,192.51l-6.47-3.74c-.52-.3-.45-.82.14-1.17l6.42-3.71a2.27,2.27,0,0,1,2-.09l6.47,3.73c.51.3.45.83-.14,1.18l-6.42,3.71A2.27,2.27,0,0,1,169.69,192.51Z"/><path id="Path_79" data-name="Path 79" class="cls-10" d="M179.68,198.28l-6.47-3.73c-.51-.3-.45-.83.15-1.18l6.42-3.7a2.22,2.22,0,0,1,2-.09l6.47,3.73c.52.3.46.82-.14,1.17l-6.42,3.71A2.27,2.27,0,0,1,179.68,198.28Z"/><path id="Path_80" data-name="Path 80" class="cls-10" d="M189.68,204.05l-6.47-3.73c-.52-.3-.45-.83.14-1.17l6.42-3.71a2.27,2.27,0,0,1,2-.09l6.47,3.73c.52.3.45.83-.14,1.18l-6.42,3.7A2.27,2.27,0,0,1,189.68,204.05Z"/><path id="Path_81" data-name="Path 81" class="cls-10" d="M199.69,209.83l-6.47-3.74c-.52-.3-.45-.82.14-1.17l6.42-3.71a2.27,2.27,0,0,1,2-.09l6.47,3.73c.51.3.45.83-.14,1.18l-6.42,3.71A2.3,2.3,0,0,1,199.69,209.83Z"/><path id="Path_82" data-name="Path 82" class="cls-10" d="M209.69,215.6l-6.47-3.73c-.52-.3-.46-.83.14-1.18l6.42-3.71a2.25,2.25,0,0,1,2-.09l6.47,3.74c.52.3.46.82-.14,1.17l-6.42,3.71A2.25,2.25,0,0,1,209.69,215.6Z"/><path id="Path_83" data-name="Path 83" class="cls-10" d="M219.68,221.37l-6.47-3.73c-.52-.3-.45-.83.14-1.18l6.42-3.7a2.24,2.24,0,0,1,2-.09l6.47,3.73c.52.3.45.83-.14,1.17l-6.42,3.71A2.27,2.27,0,0,1,219.68,221.37Z"/><path id="Path_84" data-name="Path 84" class="cls-10" d="M229.68,227.14l-6.47-3.73c-.52-.3-.45-.83.14-1.17l6.42-3.71a2.27,2.27,0,0,1,2-.09l6.47,3.73c.51.3.45.83-.15,1.18l-6.42,3.7A2.22,2.22,0,0,1,229.68,227.14Z"/><path id="Path_85" data-name="Path 85" class="cls-10" d="M134.42,160.9,128,157.17c-.52-.3-.46-.83.14-1.17l6.42-3.71a2.27,2.27,0,0,1,2-.09l6.47,3.74c.51.3.45.82-.15,1.17l-6.41,3.71A2.24,2.24,0,0,1,134.42,160.9Z"/><path id="Path_86" data-name="Path 86" class="cls-10" d="M124.46,155.16,118,151.42c-.52-.3-.45-.82.14-1.17l6.42-3.71a2.27,2.27,0,0,1,2-.09l6.47,3.73c.52.3.45.83-.14,1.18l-6.42,3.71A2.27,2.27,0,0,1,124.46,155.16Z"/><path id="Path_87" data-name="Path 87" class="cls-10" d="M114.52,149.41l-6.47-3.73c-.52-.3-.46-.83.14-1.18l6.42-3.7a2.27,2.27,0,0,1,2-.09l6.47,3.73c.51.3.45.83-.15,1.18l-6.42,3.7A2.25,2.25,0,0,1,114.52,149.41Z"/><path id="Path_88" data-name="Path 88" class="cls-10" d="M104.56,143.66l-6.47-3.73c-.52-.3-.45-.83.14-1.17l6.42-3.71a2.27,2.27,0,0,1,2-.09l6.47,3.73c.51.3.45.83-.14,1.18l-6.42,3.7A2.24,2.24,0,0,1,104.56,143.66Z"/><path id="Path_89" data-name="Path 89" class="cls-10" d="M114.8,137.76,108.33,134c-.52-.3-.45-.83.14-1.18l2.12-1.22a2.27,2.27,0,0,1,2-.09l6.47,3.73c.51.3.45.83-.14,1.18l-2.12,1.22A2.27,2.27,0,0,1,114.8,137.76Z"/><path id="Path_90" data-name="Path 90" class="cls-10" d="M127.78,145.25l-6.47-3.73c-.52-.3-.45-.83.14-1.18l2.12-1.22a2.24,2.24,0,0,1,2-.09l6.47,3.73c.51.3.45.83-.15,1.17l-2.11,1.23A2.21,2.21,0,0,1,127.78,145.25Z"/><path id="Path_91" data-name="Path 91" class="cls-10" d="M137.69,151l-6.47-3.73c-.52-.3-.46-.83.14-1.18l2.11-1.22a2.24,2.24,0,0,1,2-.09l6.47,3.73c.52.3.45.83-.14,1.17l-2.12,1.23A2.19,2.19,0,0,1,137.69,151Z"/><path id="Path_92" data-name="Path 92" class="cls-10" d="M147.6,156.69,141.13,153c-.51-.3-.45-.83.15-1.17l2.11-1.23a2.27,2.27,0,0,1,2-.09l6.47,3.73c.52.3.45.83-.14,1.18l-2.12,1.22A2.24,2.24,0,0,1,147.6,156.69Z"/><path id="Path_93" data-name="Path 93" class="cls-10" d="M157.51,162.41,151,158.68c-.52-.3-.45-.82.14-1.17l2.12-1.23a2.27,2.27,0,0,1,2-.09l6.47,3.73c.51.3.45.83-.14,1.18l-2.12,1.22A2.24,2.24,0,0,1,157.51,162.41Z"/><path id="Path_94" data-name="Path 94" class="cls-10" d="M212.82,194.35l-6.47-3.73c-.51-.3-.45-.83.15-1.17l2.11-1.23a2.27,2.27,0,0,1,2-.09l6.47,3.73c.52.3.45.83-.14,1.18l-2.12,1.22A2.21,2.21,0,0,1,212.82,194.35Z"/><path id="Path_95" data-name="Path 95" class="cls-10" d="M222.74,200.07l-6.47-3.73c-.51-.3-.45-.82.14-1.17l2.12-1.23a2.27,2.27,0,0,1,2-.09l6.47,3.73c.52.3.45.83-.14,1.18L224.77,200A2.21,2.21,0,0,1,222.74,200.07Z"/><path id="Path_96" data-name="Path 96" class="cls-10" d="M232.65,205.8l-6.47-3.74c-.52-.3-.45-.82.14-1.17l2.12-1.23a2.27,2.27,0,0,1,2-.09l6.47,3.73c.51.3.45.83-.15,1.18l-2.11,1.23A2.3,2.3,0,0,1,232.65,205.8Z"/><path id="Path_97" data-name="Path 97" class="cls-10" d="M242.55,211.52l-6.47-3.74c-.51-.3-.45-.82.15-1.17l2.11-1.23a2.27,2.27,0,0,1,2-.09l6.47,3.73c.52.3.45.83-.14,1.18l-2.12,1.23A2.27,2.27,0,0,1,242.55,211.52Z"/><path id="Path_98" data-name="Path 98" class="cls-10" d="M144.41,166.68l-6.47-3.74c-.51-.3-.45-.82.15-1.17l6.41-3.71a2.27,2.27,0,0,1,2-.09L153,161.7c.52.3.45.83-.14,1.18l-6.42,3.71A2.27,2.27,0,0,1,144.41,166.68Z"/><path id="Path_99" data-name="Path 99" class="cls-10" d="M154.42,172.45,148,168.72c-.51-.3-.45-.83.14-1.18l6.42-3.7a2.24,2.24,0,0,1,2-.09l6.47,3.73c.52.3.45.82-.14,1.17l-6.42,3.71A2.27,2.27,0,0,1,154.42,172.45Z"/><path id="Path_100" data-name="Path 100" class="cls-10" d="M164.42,178.22,158,174.49c-.52-.3-.45-.83.14-1.17l6.42-3.71a2.27,2.27,0,0,1,2-.09l6.47,3.73c.52.3.45.83-.14,1.18l-6.42,3.7A2.27,2.27,0,0,1,164.42,178.22Z"/><path id="Path_101" data-name="Path 101" class="cls-10" d="M174.42,184,168,180.26c-.52-.3-.46-.82.14-1.17l6.42-3.71a2.25,2.25,0,0,1,2-.09L183,179c.52.3.46.83-.14,1.18l-6.42,3.71A2.28,2.28,0,0,1,174.42,184Z"/><path id="Path_102" data-name="Path 102" class="cls-10" d="M184.41,189.77,177.94,186c-.52-.3-.45-.83.14-1.18l6.42-3.71a2.27,2.27,0,0,1,2-.09L193,184.8c.52.3.45.82-.14,1.17l-6.42,3.71A2.27,2.27,0,0,1,184.41,189.77Z"/><path id="Path_103" data-name="Path 103" class="cls-10" d="M194.42,195.54,188,191.81c-.52-.3-.45-.83.14-1.18l6.42-3.7a2.24,2.24,0,0,1,2-.09l6.47,3.73c.52.3.45.83-.14,1.17l-6.42,3.71A2.27,2.27,0,0,1,194.42,195.54Z"/><path id="Path_104" data-name="Path 104" class="cls-10" d="M204.42,201.31,198,197.58c-.52-.3-.46-.82.14-1.17l6.42-3.71a2.27,2.27,0,0,1,2-.09l6.47,3.73c.51.3.45.83-.15,1.18l-6.42,3.7A2.22,2.22,0,0,1,204.42,201.31Z"/><path id="Path_105" data-name="Path 105" class="cls-10" d="M214.41,207.09l-6.47-3.73c-.51-.3-.45-.83.14-1.18l6.42-3.71a2.27,2.27,0,0,1,2-.09l6.47,3.74c.52.3.45.82-.14,1.17L216.44,207A2.27,2.27,0,0,1,214.41,207.09Z"/><path id="Path_106" data-name="Path 106" class="cls-10" d="M224.42,212.86,218,209.13c-.52-.3-.45-.83.14-1.18l6.42-3.7a2.24,2.24,0,0,1,2-.09l6.47,3.73c.52.3.45.83-.14,1.17l-6.42,3.71A2.27,2.27,0,0,1,224.42,212.86Z"/><path id="Path_107" data-name="Path 107" class="cls-10" d="M87.24,167.39l-19.07-11c-.52-.3-.46-.83.14-1.18l6.42-3.7a2.22,2.22,0,0,1,2-.09l19.08,11c.52.3.45.83-.14,1.18l-6.42,3.7A2.27,2.27,0,0,1,87.24,167.39Z"/><path id="Path_108" data-name="Path 108" class="cls-10" d="M210.1,238.32,191,227.3c-.51-.3-.45-.83.15-1.18l6.42-3.7a2.22,2.22,0,0,1,2-.09l19.08,11c.51.3.45.83-.14,1.18l-6.42,3.71A2.3,2.3,0,0,1,210.1,238.32Z"/><path id="Path_109" data-name="Path 109" class="cls-10" d="M170.1,228l-6.47-3.73c-.52-.3-.45-.83.14-1.17l7.65-4.42a2.27,2.27,0,0,1,2-.09l6.47,3.73c.51.3.45.83-.15,1.18l-7.64,4.41A2.24,2.24,0,0,1,170.1,228Z"/><path id="Path_110" data-name="Path 110" class="cls-10" d="M97.49,186.05l-10.36-6c-.52-.3-.46-.83.14-1.18l7.65-4.41a2.22,2.22,0,0,1,2-.09l10.36,6c.52.3.45.82-.14,1.17L99.51,186A2.25,2.25,0,0,1,97.49,186.05Z"/><path id="Path_111" data-name="Path 111" class="cls-10" d="M160.47,222.42l-10.36-6c-.52-.3-.45-.83.14-1.18l7.65-4.42a2.25,2.25,0,0,1,2-.09l10.36,6c.52.3.45.83-.14,1.18l-7.64,4.42A2.27,2.27,0,0,1,160.47,222.42Z"/><path id="Path_112" data-name="Path 112" class="cls-10" d="M111.91,194.38l-10.36-6c-.52-.3-.45-.83.14-1.17l7.65-4.42a2.25,2.25,0,0,1,2-.09l10.36,6c.52.3.45.83-.14,1.17l-7.64,4.42A2.27,2.27,0,0,1,111.91,194.38Z"/><path id="Path_113" data-name="Path 113" class="cls-10" d="M111.44,182.77l45,26a.62.62,0,0,1,.39.78.64.64,0,0,1-.39.38l-7.8,4.49a2.18,2.18,0,0,1-2,0l-45-26Z"/><path id="Path_114" data-name="Path 114" class="cls-10" d="M198.05,238.44l7.22,4.16c.42.25.37.68-.12,1L202,245.37a1.86,1.86,0,0,1-1.67.06l-7.22-4.16c-.42-.24-.37-.67.12-1l3.12-1.81A1.92,1.92,0,0,1,198.05,238.44Z"/><path id="Path_115" data-name="Path 115" class="cls-10" d="M188,232.62l7.22,4.16c.42.24.37.67-.12.95L192,239.54a1.83,1.83,0,0,1-1.66.07l-7.22-4.16c-.43-.24-.38-.67.11-.95l3.13-1.81A1.89,1.89,0,0,1,188,232.62Z"/><path id="Path_116" data-name="Path 116" class="cls-10" d="M178,226.85l7.22,4.16c.42.24.37.67-.12,1L182,233.77a1.86,1.86,0,0,1-1.67.07l-7.22-4.16c-.43-.25-.37-.67.12-1l3.12-1.81A1.92,1.92,0,0,1,178,226.85Z"/><path id="Path_117" data-name="Path 117" class="cls-10" d="M193.49,229.44l7.22,4.16c.42.25.37.67-.12,1l-3.12,1.81a1.89,1.89,0,0,1-1.67.06l-7.22-4.16c-.42-.24-.37-.67.12-1l3.12-1.81A1.86,1.86,0,0,1,193.49,229.44Z"/></g></g></g></svg>