<svg xmlns="http://www.w3.org/2000/svg" viewBox="0 0 1279.38 778.35"><defs><style>.cls-1{fill:#e6e6f0;}</style></defs><title>Asset 2</title><g id="Layer_2" data-name="Layer 2"><g id="Layer_1-2" data-name="Layer 1"><polygon class="cls-1" points="566.13 431.82 555.33 425.7 529.06 441.72 434.93 496.03 307.14 422.33 142.55 517.26 0 599.48 307.14 778.35 614.29 599.48 446.88 502.92 566.13 431.82"/><polygon class="cls-1" points="702.54 271.26 830.99 194.9 820.19 188.78 690.71 264.28 702.54 271.26"/><polygon class="cls-1" points="896.66 234.04 1017.62 304.48 1138.58 234.04 1017.62 164.28 952.8 201.66 896.66 234.04"/><polygon class="cls-1" points="1279.38 318.97 1158.43 249.21 1093.61 286.6 1037.47 318.97 1100.16 355.48 930.73 454.16 825.97 393.15 868.9 368.14 833.94 347.98 961.74 272.01 950.94 265.89 821.98 341.09 663.64 249.76 614.12 278.32 513.14 219.51 608.4 164.57 697.46 113.2 743.82 140.21 864.78 69.76 743.82 0 679 37.38 622.87 69.76 686.34 106.73 586.05 164.57 490.79 219.51 602.89 284.8 553.64 313.2 458.38 368.14 663.64 487.69 814.46 399.85 930.73 467.57 1111.68 362.19 1158.43 389.42 1279.38 318.97"/><polygon class="cls-1" points="760.32 153.58 881.28 224.02 1002.24 153.58 881.28 83.82 816.46 121.2 760.32 153.58"/></g></g></svg>