<svg id="Layer_1" data-name="Layer 1" xmlns="http://www.w3.org/2000/svg" viewBox="0 0 117 98"><defs><style>.cls-1{fill:#f9bf30;}.cls-2{fill:#e8a200;}.cls-3{fill:#fdd762;}.cls-4{fill:#d3008d;}.cls-5{fill:#ff2c9c;}.cls-6{fill:#fff;}.cls-7{fill:#5793ce;}.cls-8{fill:#d4ecff;}</style></defs><title>Artboard 24</title><g id="Group_23" data-name="Group 23"><g id="Group_20" data-name="Group 20"><g id="Group_19" data-name="Group 19"><path id="Path_207" data-name="Path 207" class="cls-1" d="M54.47,61.65,18.75,41a1.82,1.82,0,0,0-1.84-.15h0l-3.46,2,2.44.89v26a6.87,6.87,0,0,0,2.88,5.5L52.9,95v3l3.51-2h0a2.52,2.52,0,0,0,1-2.28V67.15A6.93,6.93,0,0,0,54.47,61.65Z"/><path id="Path_208" data-name="Path 208" class="cls-2" d="M56.39,96h0a2.56,2.56,0,0,0,1-2.29V67.15A7.23,7.23,0,0,0,56.54,64L27.93,80.56l25,14.4V98Z"/><path id="Path_209" data-name="Path 209" class="cls-3" d="M50.94,97.91,15.23,77.28a6.87,6.87,0,0,1-2.88-5.5V45.24c0-2.13,1.28-3.1,2.88-2.18L50.94,63.69a6.87,6.87,0,0,1,2.88,5.5V95.75C53.82,97.86,52.52,98.83,50.94,97.91Z"/></g></g><path id="Path_210" data-name="Path 210" class="cls-2" d="M13.45,42.87,33.09,70.49,53,66.08,32.67,72.69Z"/><path id="Path_211" data-name="Path 211" class="cls-2" d="M35.39,71.34l1.66-.46L52.89,98Z"/><path id="Path_212" data-name="Path 212" class="cls-2" d="M31.21,69.7l-17.63,6,16.71-7.5Z"/><g id="Group_21" data-name="Group 21"><path id="Path_213" data-name="Path 213" class="cls-4" d="M22.39,45.25c0-6.14-4.32-13.63-9.65-16.69-2.6-1.49-4.94-1.66-6.68-.74h0l-.1.05s0,0,0,0L2.55,29.83l1.6-.1a8.75,8.75,0,0,0-1,4.4c0,6.14,4.32,13.63,9.65,16.69a9.23,9.23,0,0,0,4,1.3L16,53.56l3.48-2,.22-.13.16-.1h0C21.4,50.27,22.39,48.18,22.39,45.25Z"/><path id="Path_214" data-name="Path 214" class="cls-5" d="M18.9,47.26c0,6.14-4.31,8.64-9.65,5.57S-.38,42.28-.38,36.14s4.32-8.64,9.65-5.57S18.9,41.12,18.9,47.26Z"/></g><g id="Group_22" data-name="Group 22"><path id="Path_215" data-name="Path 215" class="cls-6" d="M9.12,47.82a5.82,5.82,0,0,1-1.32-1A4.41,4.41,0,0,1,7,45.59a6.08,6.08,0,0,1-.41-1.38,9.59,9.59,0,0,1-.13-1.6l1.78,1c0,.33,0,.62,0,.86a3.64,3.64,0,0,0,.13.72,1.88,1.88,0,0,0,.3.64,1.84,1.84,0,0,0,.51.45.61.61,0,0,0,.35.11l.24,0a.48.48,0,0,0,.17-.23,2.07,2.07,0,0,0,.1-.33c0-.1,0-.26,0-.48s0-.41,0-.56v-.64c0-.31,0-.58,0-.77a3.54,3.54,0,0,0,0-.73,2.48,2.48,0,0,0-.17-.59,1.67,1.67,0,0,0-.28-.46,1.61,1.61,0,0,0-.44-.38.62.62,0,0,0-.64-.07.78.78,0,0,0-.36.55l-1.56-.9.08-6.71,4.79,2.76v1.91L8.23,36.86l-.11,2.82a.72.72,0,0,1,.57-.1,2.31,2.31,0,0,1,.83.3,3.59,3.59,0,0,1,1.07.83,4.17,4.17,0,0,1,.74,1.19,6.33,6.33,0,0,1,.41,1.41,10,10,0,0,1,.13,1.63,10.85,10.85,0,0,1-.07,1.4,5.05,5.05,0,0,1-.24,1.09,1.3,1.3,0,0,1-.48.69,1.15,1.15,0,0,1-.81.15A3,3,0,0,1,9.12,47.82Z"/></g></g><g id="Group_30" data-name="Group 30"><g id="Group_26" data-name="Group 26"><g id="Group_24" data-name="Group 24"><path id="Path_216" data-name="Path 216" class="cls-4" d="M113.87,52.82,80,33.26a1.7,1.7,0,0,0-1.75-.14v0L75,35l2.31.85V60.52A6.51,6.51,0,0,0,80,65.74l32.39,18.71v2.89l3.33-1.9h0a2.44,2.44,0,0,0,.92-2.18V58A6.63,6.63,0,0,0,113.87,52.82Z"/><path id="Path_217" data-name="Path 217" class="cls-5" d="M110.53,87.23,76.64,67.66a6.58,6.58,0,0,1-2.73-5.22V37.25c0-2,1.22-2.93,2.73-2.06l33.89,19.57A6.56,6.56,0,0,1,113.27,60v25.2C113.25,87.17,112,88.09,110.53,87.23Z"/></g><g id="Group_25" data-name="Group 25"><path id="Path_218" data-name="Path 218" class="cls-6" d="M88,59c0,1.45-1,2.05-2.28,1.33a5,5,0,0,1-2.28-4c0-1.47,1-2.05,2.28-1.33A5.06,5.06,0,0,1,88,59Z"/><path id="Path_219" data-name="Path 219" class="cls-6" d="M95,63c0,1.45-1,2-2.28,1.32a5,5,0,0,1-2.28-4c0-1.46,1-2.05,2.28-1.33A5.09,5.09,0,0,1,95,63Z"/><path id="Path_220" data-name="Path 220" class="cls-6" d="M101.88,67c0,1.46-1,2-2.28,1.33a5,5,0,0,1-2.28-4c0-1.45,1-2,2.28-1.32A5.05,5.05,0,0,1,101.88,67Z"/></g></g><g id="Group_29" data-name="Group 29"><g id="Group_27" data-name="Group 27"><path id="Path_221" data-name="Path 221" class="cls-7" d="M94.59,21.14,60.69,1.57A1.73,1.73,0,0,0,59,1.43v0l-3.3,1.91L58,4.16V28.84a6.53,6.53,0,0,0,2.72,5.22L93.08,52.77v2.88l3.33-1.9h0a2.41,2.41,0,0,0,.93-2.17V26.36A6.58,6.58,0,0,0,94.59,21.14Z"/><path id="Path_222" data-name="Path 222" class="cls-8" d="M91.25,55.55,57.36,36a6.51,6.51,0,0,1-2.74-5.21V5.57c0-2,1.22-2.94,2.74-2.06L91.25,23.07A6.59,6.59,0,0,1,94,28.29V53.5C94,55.49,92.74,56.42,91.25,55.55Z"/></g><g id="Group_28" data-name="Group 28"><path id="Path_223" data-name="Path 223" class="cls-6" d="M68.74,27.29c0,1.45-1,2.05-2.28,1.33a5.06,5.06,0,0,1-2.28-4c0-1.45,1-2,2.28-1.33A5.06,5.06,0,0,1,68.74,27.29Z"/><path id="Path_224" data-name="Path 224" class="cls-6" d="M75.68,31.29c0,1.45-1,2-2.28,1.32a5,5,0,0,1-2.28-4c0-1.45,1-2,2.28-1.33A5.14,5.14,0,0,1,75.68,31.29Z"/><path id="Path_225" data-name="Path 225" class="cls-6" d="M82.61,35.29c0,1.45-1,2-2.28,1.32a5,5,0,0,1-2.28-4c0-1.47,1-2,2.28-1.33A5.11,5.11,0,0,1,82.61,35.29Z"/></g></g></g></svg>