<svg id="Layer_1" data-name="Layer 1" xmlns="http://www.w3.org/2000/svg" viewBox="0 0 154.49 186.81"><defs><style>.cls-1{fill:#384b61;}.cls-2{fill:#5f859d;}.cls-3{fill:#ebebeb;}.cls-4{fill:#fff;}.cls-5{fill:#6190a6;}.cls-6{fill:#d4ecff;}.cls-7{fill:#3b556b;}</style></defs><title>Artboard 14</title><g id="Group_13" data-name="Group 13"><path id="Path_158" data-name="Path 158" class="cls-1" d="M154.47,141.63h0V118.51l-51.84,0L84.7,108.14c-4.1-2.38-11.3-2.07-16,.66l-16.72,9.65L0,118.43V142.2c-.11,1.61.78,3.16,2.75,4.3l67,38.7c4.1,2.38,11.3,2.07,16-.66l64.7-37.37C153.3,145.58,154.63,143.53,154.47,141.63Z"/><path id="Path_159" data-name="Path 159" class="cls-1" d="M77.26,106.53a18.46,18.46,0,0,0-8.6,2.25l-16.72,9.65H0V142.2c-.11,1.61.78,3.16,2.75,4.3l67,38.7a14.53,14.53,0,0,0,7.44,1.59V106.53Z"/><path id="Path_191" data-name="Path 191" class="cls-2" d="M5.9,118.43H0V142.2c-.11,1.61.78,3.16,2.75,4.3l3.12,1.79V118.43Z"/><path id="Path_161" data-name="Path 161" class="cls-2" d="M70.84,185.71c3.56,1.52,8.69,1.44,12.84-.16v-27H70.84Z"/><path id="Path_162" data-name="Path 162" class="cls-3" d="M69.8,161.5l-67-38.69c-4.1-2.38-3.6-6.52,1.15-9.25l64.7-37.38c4.76-2.75,11.94-3,16.05-.65l67,38.7c4.1,2.38,3.6,6.53-1.16,9.26L85.86,160.84C81.1,163.57,73.92,163.88,69.8,161.5Z"/><path id="Path_163" data-name="Path 163" class="cls-2" d="M71,154.53,14.85,122.12c-3.45-2-3-5.46,1-7.78L70,83c4-2.29,10-2.55,13.44-.56l56.17,32.41c3.45,2,3,5.46-1,7.78L84.47,154C80.47,156.28,74.47,156.52,71,154.53Z"/><g id="Group_8" data-name="Group 8"><path id="Path_164" data-name="Path 164" class="cls-3" d="M129.82,147.74a6,6,0,0,1-2.7,4.7c-1.48.87-2.7.15-2.7-1.58a6,6,0,0,1,2.7-4.69C128.61,145.3,129.82,146,129.82,147.74Z"/><path id="Path_165" data-name="Path 165" class="cls-3" d="M138.54,142.7a6.05,6.05,0,0,1-2.71,4.69c-1.48.88-2.71.16-2.71-1.57a6.08,6.08,0,0,1,2.71-4.69C137.32,140.28,138.54,141,138.54,142.7Z"/><path id="Path_166" data-name="Path 166" class="cls-3" d="M147.25,137.68a6,6,0,0,1-2.71,4.69c-1.48.88-2.7.16-2.7-1.57a6,6,0,0,1,2.7-4.69C146,135.26,147.25,136,147.25,137.68Z"/></g><path id="Path_167" data-name="Path 167" class="cls-1" d="M154.47,104.67h0V81.55l-51.84,0L84.7,71.16c-4.1-2.38-11.3-2.07-16,.66L51.94,81.47H0v23.77c-.11,1.62.78,3.17,2.75,4.3l67,38.71c4.1,2.37,11.3,2.07,16-.66l64.7-37.37C153.3,108.62,154.63,106.59,154.47,104.67Z"/><path id="Path_168" data-name="Path 168" class="cls-1" d="M77.26,69.59a18.46,18.46,0,0,0-8.6,2.25L51.94,81.49,0,81.47v23.77c-.11,1.62.78,3.17,2.75,4.3l67,38.71a14.74,14.74,0,0,0,7.44,1.59V69.59Z"/><path id="Path_192" data-name="Path 192" class="cls-2" d="M5.9,81.47H0v23.77c-.11,1.61.78,3.16,2.75,4.3l3.12,1.79V81.47Z"/><path id="Path_170" data-name="Path 170" class="cls-2" d="M70.84,148.75c3.56,1.53,8.69,1.44,12.84-.16v-27H70.84Z"/><path id="Path_171" data-name="Path 171" class="cls-3" d="M69.8,124.54l-67-38.69c-4.1-2.37-3.6-6.52,1.15-9.25L68.64,39.23c4.76-2.75,11.94-3,16-.66l67,38.7c4.1,2.38,3.6,6.53-1.15,9.26L85.86,123.88C81.1,126.61,73.92,126.92,69.8,124.54Z"/><path id="Path_172" data-name="Path 172" class="cls-2" d="M71,117.57,14.85,85.16c-3.45-2-3-5.46,1-7.78L70,46.08c4-2.29,10-2.55,13.44-.56l56.17,32.41c3.45,2,3,5.46-1,7.78L84.47,117C80.47,119.32,74.47,119.56,71,117.57Z"/><g id="Group_10" data-name="Group 10"><path id="Path_173" data-name="Path 173" class="cls-3" d="M129.82,110.79a6,6,0,0,1-2.7,4.69c-1.48.87-2.7.15-2.7-1.57a6,6,0,0,1,2.7-4.7C128.61,108.36,129.82,109.06,129.82,110.79Z"/><path id="Path_174" data-name="Path 174" class="cls-3" d="M138.54,105.74a6.05,6.05,0,0,1-2.71,4.7c-1.48.87-2.71.15-2.71-1.58a6.08,6.08,0,0,1,2.71-4.69C137.32,103.32,138.54,104,138.54,105.74Z"/><path id="Path_175" data-name="Path 175" class="cls-3" d="M147.25,100.72a6,6,0,0,1-2.71,4.7c-1.48.87-2.7.15-2.7-1.58a6,6,0,0,1,2.7-4.69C146,98.3,147.25,99,147.25,100.72Z"/></g><path id="Path_176" data-name="Path 176" class="cls-1" d="M154.48,67.71h0V44.6l-51.85,0L84.71,34.23c-4.1-2.38-11.31-2.08-16,.65L51.94,44.53,0,44.51V68.28c-.11,1.61.78,3.16,2.75,4.3l67,38.71c4.1,2.38,11.3,2.07,16-.66l64.7-37.37C153.3,71.67,154.63,69.63,154.48,67.71Z"/><path id="Path_177" data-name="Path 177" class="cls-1" d="M77.26,32.63a18.46,18.46,0,0,0-8.6,2.25L51.94,44.53,0,44.51V68.28c-.11,1.62.78,3.17,2.75,4.3l67,38.7a14.64,14.64,0,0,0,7.44,1.6V32.63Z"/><path id="Path_193" data-name="Path 193" class="cls-2" d="M5.9,44.51H0V68.28c-.11,1.62.78,3.17,2.75,4.3L5.9,74.37V44.51Z"/><path id="Path_179" data-name="Path 179" class="cls-2" d="M70.84,111.79c3.56,1.53,8.69,1.44,12.84-.15v-27H70.84Z"/><path id="Path_180" data-name="Path 180" class="cls-3" d="M69.8,87.58,2.78,48.9c-4.1-2.38-3.6-6.53,1.15-9.26L68.63,2.27c4.77-2.75,12-3,16.05-.66l67,38.7c4.1,2.38,3.6,6.53-1.15,9.26L85.86,86.92C81.1,89.68,73.92,90,69.8,87.58Z"/><path id="Path_181" data-name="Path 181" class="cls-4" d="M150.57,45,85.87,82.38c-4.76,2.75-11.94,3-16.05.66l-67-38.71A6.27,6.27,0,0,1,.72,42.52C-.69,44.79,0,47.25,2.78,48.89l67,38.7c4.1,2.38,11.3,2.08,16-.65l64.73-37.4c3.69-2.14,4.8-5.11,3.21-7.45A9,9,0,0,1,150.57,45Z"/><g id="Group_12" data-name="Group 12"><path id="Path_182" data-name="Path 182" class="cls-3" d="M129.82,73.83a6,6,0,0,1-2.7,4.69c-1.48.87-2.7.15-2.7-1.57a6,6,0,0,1,2.7-4.69C128.61,71.4,129.82,72.1,129.82,73.83Z"/><path id="Path_183" data-name="Path 183" class="cls-3" d="M138.54,68.78a6.05,6.05,0,0,1-2.71,4.7c-1.48.87-2.71.15-2.71-1.58a6.08,6.08,0,0,1,2.71-4.69C137.32,66.36,138.54,67.06,138.54,68.78Z"/><path id="Path_184" data-name="Path 184" class="cls-3" d="M147.25,63.76a6,6,0,0,1-2.71,4.7c-1.48.87-2.7.15-2.7-1.58a6,6,0,0,1,2.7-4.69C146,61.34,147.25,62,147.25,63.76Z"/></g><path id="Path_185" data-name="Path 185" class="cls-5" d="M73.77,63.59,42.4,45.49c-1.92-1.12-1.68-3.06.54-4.35L73.22,23.66a8.35,8.35,0,0,1,7.51-.31L112.1,41.47c1.92,1.12,1.68,3.06-.54,4.35L81.28,63.3C79.05,64.57,75.69,64.7,73.77,63.59Z"/><path id="Path_186" data-name="Path 186" class="cls-6" d="M76.76,48.44l-4.35-2.51c-.26-.16-.24-.42.07-.59l4.19-2.42a1.18,1.18,0,0,1,1-.05l4.34,2.51c.26.15.24.42-.06.59l-4.19,2.42A1.18,1.18,0,0,1,76.76,48.44Z"/><path id="Path_187" data-name="Path 187" class="cls-7" d="M42.4,45.49l.09,0a3.52,3.52,0,0,1,.45-.3L73.22,27.75a8.29,8.29,0,0,1,7.51-.31L112,45.49c1.77-1.27,1.88-3,.09-4L80.73,23.35a8.35,8.35,0,0,0-7.51.31L42.94,41.15C40.72,42.43,40.48,44.38,42.4,45.49Z"/></g></svg>