<svg id="Layer_1" data-name="Layer 1" xmlns="http://www.w3.org/2000/svg" viewBox="0 0 132.71 149.13"><defs><style>.cls-1{fill:#5793ce;}.cls-2{fill:#396caa;}.cls-3{fill:#d4ecff;}.cls-4{fill:#fff;}</style></defs><title>Artboard 16</title><g id="Group_66" data-name="Group 66"><g id="Group_54" data-name="Group 54"><path id="Path_297" data-name="Path 297" class="cls-1" d="M38.14,127.6a1,1,0,0,1-1-.95V87.39a1,1,0,0,1,1.9,0v39.25a1,1,0,0,1-.94,1Z"/><g id="Group_53" data-name="Group 53"><g id="Group_51" data-name="Group 51"><rect id="Rectangle_29" data-name="Rectangle 29" class="cls-1" x="34.73" y="84.92" width="6.82" height="14.72"/><path id="Path_298" data-name="Path 298" class="cls-1" d="M40.55,101a5.32,5.32,0,0,1-4.82,0c-1.33-.77-1.33-2,0-2.78a5.32,5.32,0,0,1,4.82,0C41.88,99,41.88,100.26,40.55,101Z"/></g><g id="Group_52" data-name="Group 52"><rect id="Rectangle_30" data-name="Rectangle 30" class="cls-1" x="32.62" y="64.42" width="11.05" height="23.08"/><path id="Path_299" data-name="Path 299" class="cls-2" d="M34.73,87.34v5a8.86,8.86,0,0,0,6.82,0v-5A8.86,8.86,0,0,0,34.73,87.34Z"/><path id="Path_300" data-name="Path 300" class="cls-1" d="M42.05,89.75a8.6,8.6,0,0,1-7.81,0c-2.16-1.25-2.16-3.27,0-4.51a8.6,8.6,0,0,1,7.81,0C44.2,86.48,44.2,88.5,42.05,89.75Z"/></g></g></g><g id="Group_58" data-name="Group 58"><path id="Path_301" data-name="Path 301" class="cls-1" d="M76.42,149.13a1,1,0,0,1-1-.95V108.93a1,1,0,0,1,1.9,0v39.25a1,1,0,0,1-1,.95Z"/><g id="Group_57" data-name="Group 57"><g id="Group_55" data-name="Group 55"><rect id="Rectangle_31" data-name="Rectangle 31" class="cls-1" x="73.01" y="106.46" width="6.82" height="14.71"/><path id="Path_302" data-name="Path 302" class="cls-1" d="M78.83,122.57a5.32,5.32,0,0,1-4.82,0c-1.33-.77-1.33-2,0-2.78a5.32,5.32,0,0,1,4.82,0C80.16,120.55,80.16,121.8,78.83,122.57Z"/></g><g id="Group_56" data-name="Group 56"><rect id="Rectangle_32" data-name="Rectangle 32" class="cls-1" x="70.89" y="85.95" width="11.05" height="23.08"/><path id="Path_303" data-name="Path 303" class="cls-2" d="M73,108.88v5a8.86,8.86,0,0,0,6.82,0v-5A8.86,8.86,0,0,0,73,108.88Z"/><path id="Path_304" data-name="Path 304" class="cls-1" d="M80.32,111.29a8.6,8.6,0,0,1-7.81,0c-2.16-1.25-2.16-3.27,0-4.51a8.6,8.6,0,0,1,7.81,0C82.48,108,82.48,110,80.32,111.29Z"/></g></g></g><g id="Group_65" data-name="Group 65"><g id="Group_61" data-name="Group 61"><path id="Path_305" data-name="Path 305" class="cls-1" d="M113.62,124.25l14.82-8.73L114.33,97.91,110.62,104Z"/><path id="Path_306" data-name="Path 306" class="cls-1" d="M6.05,27.59,29.7,14s-.89,13.58-.89,13.6S15.23,31.8,15.23,31.8Z"/><path id="Path_307" data-name="Path 307" class="cls-1" d="M117.74,80a15.08,15.08,0,0,0-5.12-1.9c-2.38-12.53-11.1-25.83-21.5-31.84a21.17,21.17,0,0,0-8.8-3c-1.41-15.17-12-32.43-24.79-39.84-6.7-3.87-12.78-4.32-17.26-2h0l-.22.13-.34.2L25.77,10l4.63,3.66c-4.16,1.82-6.79,6.48-6.79,13.38,0,12.71,8.93,28.18,19.94,34.53l74.19,53c8.27,4.77,15,.9,15-8.64S126,84.74,117.74,80Z"/><path id="Path_308" data-name="Path 308" class="cls-1" d="M24.3,21.43l32-18.7c-6.21-3.24-11.83-3.51-16-1.28h0L40,1.57l-.34.2L25.77,10l4.63,3.66C27.5,14.92,25.34,17.59,24.3,21.43Z"/><path id="Path_309" data-name="Path 309" class="cls-1" d="M83.4,76.44l23.35-13.7c-4-6.93-9.52-13-15.62-16.5-.81-.47-1.61-.87-2.39-1.23L59,62.38Z"/><path id="Path_310" data-name="Path 310" class="cls-3" d="M32.35,11.52l10.41,6L61.81,6.31a38.74,38.74,0,0,0-4.28-2.9A27.5,27.5,0,0,0,50.87.61Z"/><path id="Path_311" data-name="Path 311" class="cls-3" d="M104.18,58.7l-18.64,11L92,76.91l16.92-10A55.59,55.59,0,0,0,104.18,58.7Z"/><path id="Path_312" data-name="Path 312" class="cls-3" d="M103.1,88.59A15.08,15.08,0,0,0,98,86.69c-2.38-12.53-11.1-25.84-21.5-31.84a21.17,21.17,0,0,0-8.8-3C66.26,36.68,55.7,19.42,42.88,12c-13.78-7.95-25-1.5-25,14.42,0,.54,0,1.08,0,1.63C7.88,23.4,0,28.67,0,40.61,0,53.32,8.93,68.79,19.94,75.14l83.17,48c8.27,4.77,15,.9,15-8.64S111.37,93.36,103.1,88.59Z"/><g id="Group_59" data-name="Group 59"><path id="Path_313" data-name="Path 313" class="cls-4" d="M18,28.07c0-.55,0-1.09,0-1.63v-.07C12.35,24.2,7.56,25.15,4.56,28.62,7.82,25.94,12.57,25.57,18,28.07Z"/><path id="Path_314" data-name="Path 314" class="cls-4" d="M104.32,87.4a15.08,15.08,0,0,0-5.12-1.9C96.82,73,88.1,59.66,77.7,53.66a21.17,21.17,0,0,0-8.8-3c-1.42-15.19-12-32.45-24.8-39.85-8.59-5-16.17-4.32-20.66.71C28,7.63,35,7.48,42.88,12c12.82,7.4,23.38,24.66,24.8,39.85a21.17,21.17,0,0,1,8.8,3c10.4,6,19.11,19.31,21.5,31.84a15.08,15.08,0,0,1,5.12,1.9c8.27,4.77,15,16.38,15,25.93,0,3.45-.88,6.14-2.39,8,2.24-1.73,3.6-4.86,3.6-9.15C119.29,103.78,112.59,92.17,104.32,87.4Z"/></g><g id="Group_60" data-name="Group 60"><path id="Path_315" data-name="Path 315" class="cls-2" d="M16.2,31.87l6.25,2.9-.32-6.88c0-.48,0-1,0-1.44,0-6.14,1.86-10.6,5.22-12.54s8.16-1.32,13.48,1.75c11.44,6.61,21.43,22.69,22.73,36.62l.33,3.51,3.51.27a17,17,0,0,1,7,2.43c9.09,5.25,17.28,17.44,19.48,29l.55,2.89,2.91.46A11,11,0,0,1,101,92.23c7,4,12.88,14.25,12.88,22.31,0,3-.84,5.23-2.3,6.07s-3.79.46-6.41-1L22,71.53C12.35,65.94,4.18,51.78,4.18,40.61c0-4.38,1.29-7.72,3.55-9.16A6.21,6.21,0,0,1,11,30.56,12.55,12.55,0,0,1,16.2,31.87Z"/></g></g><g id="Group_64" data-name="Group 64"><path id="Path_316" data-name="Path 316" class="cls-1" d="M57.71,84l2.19-1.1-2.15-1.64Z"/><path id="Path_317" data-name="Path 317" class="cls-1" d="M51.12,54.35l2.13-1.07,0,1.11Z"/><path id="Path_318" data-name="Path 318" class="cls-1" d="M64,77.06l2.22-1.12-4.28-4.06Z"/><g id="Group_62" data-name="Group 62"><path id="Path_319" data-name="Path 319" class="cls-1" d="M59.26,82.82,48.88,76.7a2.18,2.18,0,0,1-1-1.75l0-12,12.3,7.24,0,12C60.22,82.85,59.79,83.13,59.26,82.82Z"/><path id="Path_320" data-name="Path 320" class="cls-1" d="M53.23,53.29,42,60.51c-.48.31-.09,1.45.63,1.87L54.1,69.13l11.46,6.75c.72.43,1.11-.26.64-1.13L55.06,54.37C54.58,53.49,53.71,53,53.23,53.29Z"/></g><g id="Group_63" data-name="Group 63"><path id="Path_321" data-name="Path 321" class="cls-3" d="M57,83.94,46.65,77.82a2.18,2.18,0,0,1-.95-1.75l0-12L58,71.28l0,12C58,84,57.56,84.25,57,83.94Z"/><path id="Path_322" data-name="Path 322" class="cls-3" d="M51,54.41,39.78,61.63c-.48.31-.09,1.45.63,1.87l11.46,6.75L63.33,77c.72.43,1.11-.26.64-1.13L52.83,55.49C52.35,54.61,51.49,54.1,51,54.41Z"/></g></g></g><path id="Path_323" data-name="Path 323" class="cls-3" d="M37.09,97.09c0,.68-.48,1-1.06.61A2.32,2.32,0,0,1,35,95.86c0-.68.48-1,1.06-.61A2.35,2.35,0,0,1,37.09,97.09Z"/><path id="Path_324" data-name="Path 324" class="cls-3" d="M75.46,118.94c0,.68-.48,1-1.06.61a2.32,2.32,0,0,1-1.06-1.84c0-.68.48-.95,1.06-.61A2.35,2.35,0,0,1,75.46,118.94Z"/></g></svg>